<svg width="24" height="24" viewBox="0 0 24 24" fill="none" xmlns="http://www.w3.org/2000/svg">
<g clip-path="url(#clip0_1659_278)">
<path d="M11.4243 0.0230312C9.88915 0.104797 8.48301 0.43877 7.12869 1.04222C3.84078 2.5071 1.3809 5.37121 0.431955 8.83877C0.133682 9.92821 -0.00336169 11.0292 0.0150644 12.19C0.0242775 12.7278 0.0473101 13.0572 0.11065 13.5547C0.296063 15.0127 0.763625 16.4511 1.46958 17.7443C2.64194 19.8864 4.42812 21.6161 6.6047 22.7159C7.31986 23.0764 8.07649 23.3678 8.82735 23.5716C8.94136 23.6027 9.04846 23.6315 9.06689 23.6361L9.09798 23.643V19.6583V15.6737L7.86343 15.6714L6.62773 15.6679V13.8369V12.0058L7.86113 12.0023L9.09568 12L9.10144 10.9313C9.1072 9.89482 9.1118 9.7451 9.15096 9.32821C9.34674 7.21842 10.1874 5.80998 11.6903 5.07294C12.3663 4.74126 13.1678 4.54664 14.1767 4.46833C14.4392 4.4476 15.1256 4.44069 15.3974 4.45566C16.055 4.49251 16.784 4.57773 17.2746 4.67562C17.3978 4.70096 17.5153 4.72514 17.5337 4.7309L17.5682 4.74011L17.5717 6.40883L17.574 8.07639L17.5026 8.06948C17.1652 8.03493 15.9698 8.02111 15.6796 8.0476C14.9241 8.1167 14.4289 8.30441 14.0788 8.65451C13.8151 8.91823 13.6435 9.26487 13.5502 9.72322C13.4765 10.0814 13.4627 10.3313 13.4627 11.2537V12H15.4204C16.4972 12 17.3782 12.0046 17.3782 12.0092C17.3782 12.015 17.2285 12.8372 17.0442 13.8369C16.8611 14.8365 16.7103 15.6587 16.7103 15.6645C16.7103 15.6691 15.9801 15.6737 15.0865 15.6737H13.4627V19.7908C13.4627 23.0764 13.4661 23.9079 13.4776 23.9079C13.5156 23.9079 13.9924 23.8342 14.187 23.7985C16.0642 23.4541 17.8343 22.6607 19.359 21.4791C20.0016 20.9816 20.6707 20.3378 21.197 19.709C21.6726 19.1436 22.1241 18.486 22.4961 17.8215C22.7229 17.4161 23.0373 16.7436 23.2066 16.2979C24.0197 14.1697 24.2108 11.8514 23.7571 9.60115C23.2308 6.99155 21.8062 4.58464 19.7621 2.85489C18.098 1.4476 16.1183 0.528597 13.9867 0.172743C13.6262 0.112858 13.222 0.0667934 12.789 0.0345478C12.5782 0.018425 11.6523 0.0103626 11.4243 0.0230312Z" fill="#0866FF"/>
</g>
<defs>
<clipPath id="clip0_1659_278">
<rect width="24" height="24" fill="white"/>
</clipPath>
</defs>
</svg>
