<svg width="24" height="24" viewBox="0 0 24 24" fill="none" xmlns="http://www.w3.org/2000/svg">
<g clip-path="url(#clip0_1659_270)">
<path d="M12.0246 0C5.36066 0 0 5.5 0 12.3C0 17.75 3.44262 22.35 8.21312 23.975C8.80328 24.1 9.02459 23.7 9.02459 23.375C9.02459 23.1 9 22.1 9 21.1C5.65574 21.825 4.96721 19.625 4.96721 19.625C4.42623 18.2 3.63934 17.825 3.63934 17.825C2.55738 17.075 3.71311 17.075 3.71311 17.075C4.91803 17.15 5.55738 18.35 5.55738 18.35C6.63934 20.225 8.36066 19.7 9.04918 19.375C9.14754 18.575 9.46721 18.025 9.81148 17.725C7.15574 17.45 4.35246 16.375 4.35246 11.65C4.35246 10.3 4.81967 9.2 5.58197 8.35C5.45902 8.05 5.04098 6.775 5.70492 5.1C5.70492 5.1 6.71311 4.775 9 6.375C9.95902 6.1 10.9918 5.975 12 5.975C13.0082 5.975 14.041 6.125 15 6.375C17.2869 4.775 18.2951 5.1 18.2951 5.1C18.959 6.8 18.541 8.05 18.418 8.35C19.2049 9.2 19.6475 10.3 19.6475 11.65C19.6475 16.375 16.8443 17.425 14.1639 17.725C14.6066 18.1 14.9754 18.85 14.9754 20C14.9754 21.65 14.9508 22.975 14.9508 23.375C14.9508 23.7 15.1721 24.1 15.7623 23.975C20.5574 22.35 24 17.75 24 12.3C24.0246 5.5 18.6393 0 12.0246 0Z" fill="#1B1F24"/>
</g>
<defs>
<clipPath id="clip0_1659_270">
<rect width="24" height="24" fill="white"/>
</clipPath>
</defs>
</svg>
