<svg width="24" height="24" viewBox="0 0 24 24" fill="none" xmlns="http://www.w3.org/2000/svg">
<path d="M0 1.71919C0 0.77025 0.794438 0 1.77375 0H22.2262C23.2059 0 24 0.77025 24 1.71919V22.2811C24 23.2303 23.2059 24 22.2262 24H1.77375C0.794531 24 0 23.2304 0 22.2814V1.71891V1.71919Z" fill="#0A66C2"/>
<path d="M7.285 20.0849V9.28002H3.69362V20.0849H7.28537H7.285ZM5.49006 7.80505C6.74218 7.80505 7.52171 6.97536 7.52171 5.93849C7.49828 4.87799 6.74218 4.07146 5.51387 4.07146C4.28471 4.07146 3.48193 4.87799 3.48193 5.93839C3.48193 6.97527 4.26118 7.80496 5.46653 7.80496H5.48978L5.49006 7.80505ZM9.27287 20.0849H12.864V14.0516C12.864 13.7291 12.8874 13.4058 12.9823 13.1754C13.2418 12.53 13.8327 11.8618 14.825 11.8618C16.1242 11.8618 16.6442 12.8526 16.6442 14.3052V20.0849H20.2352V13.8897C20.2352 10.5711 18.4637 9.02671 16.101 9.02671C14.1638 9.02671 13.313 10.1094 12.8403 10.8469H12.8642V9.28039H9.27306C9.31993 10.294 9.27278 20.0853 9.27278 20.0853L9.27287 20.0849Z" fill="white"/>
</svg>
