<svg width="1600" height="967" viewBox="0 0 1600 967" fill="none" xmlns="http://www.w3.org/2000/svg">
<g clip-path="url(#clip0_2358_238)">
<path d="M1573.48 600.695L1561.06 598M1573.48 600.695H1536.65M1573.48 600.695L1586.33 603.479M1573.48 600.695H1599.57M1561.06 598L1565.58 598.001L1570.05 598.007L1574.44 598.023L1578.68 598.056L1582.74 598.108L1586.58 598.187L1590.14 598.297L1593.44 598.436L1596.28 598.63L1598.86 598.854L1599.57 598.932V600.695M1561.06 598H1524.81M1524.81 598H1488.57M1524.81 598L1536.65 600.695M1488.57 598H1452.33M1488.57 598L1499.82 600.695M1452.33 598H1416.09M1452.33 598L1462.99 600.695M1416.09 598H1379.85M1416.09 598L1426.15 600.695M1379.85 598H1343.61M1379.85 598L1389.32 600.695M1343.61 598H1307.37M1343.61 598L1352.49 600.695M1307.37 598H1271.13M1307.37 598L1315.66 600.695M1271.13 598H1234.89M1271.13 598L1278.82 600.695M1234.89 598H1198.65M1234.89 598L1241.99 600.695M1198.65 598H1162.41M1198.65 598L1205.16 600.695M1162.41 598H1126.17M1162.41 598L1168.33 600.695M1126.17 598H1089.93M1126.17 598L1127.48 598.666L1129.48 599.674L1131.49 600.695M1089.93 598H1053.69M1089.93 598L1091.09 598.666L1094.66 600.695M1053.69 598H1017.44M1053.69 598L1057.83 600.695M1017.44 598H981.203M1017.44 598L1018.76 599L1020.1 600.013L1020.55 600.353L1021 600.695M981.203 598H944.963M981.203 598L982.302 599L982.672 599.336L983.042 599.674L984.163 600.695M944.963 598H908.722M944.963 598L947.331 600.695M908.722 598L908.941 598.332L909.16 598.666L910.272 600.353L910.498 600.695M908.722 598H872.482M872.482 598H836.241M872.482 598L873.665 600.695M836.241 598H800M836.241 598L836.46 599L836.833 600.695M800 598H763.759M800 598V600.695M763.759 598H727.518M763.759 598L763.54 599L763.167 600.695M727.518 598H691.278M727.518 598L726.335 600.695M691.278 598L691.059 598.332L690.84 598.666L689.728 600.353L689.502 600.695M691.278 598H655.037M655.037 598H618.796M655.037 598L652.97 600.353L652.669 600.695M618.796 598H582.555M618.796 598L617.698 599L617.328 599.336L616.586 600.013L616.212 600.353L615.837 600.695M582.555 598H546.315M582.555 598L581.238 599L579.903 600.013L579.455 600.353L579.004 600.695M546.315 598H510.074M546.315 598L542.172 600.695M510.074 598H473.833M510.074 598L508.905 598.666L505.34 600.695M473.833 598H437.593M473.833 598L468.507 600.695M437.593 598H401.352M437.593 598L431.674 600.695M401.352 598H365.111M401.352 598L394.842 600.695M365.111 598H328.87M365.111 598L358.009 600.695M328.87 598H292.63M328.87 598L321.176 600.695M292.63 598H256.389M292.63 598L284.344 600.695M256.389 598H220.148M256.389 598L247.511 600.695M220.148 598H183.908M220.148 598L210.678 600.695M183.908 598H147.667M183.908 598L173.846 600.695M147.667 598H111.426M147.667 598L137.013 600.695M111.426 598H75.1854M111.426 598L100.181 600.695M75.1854 598H38.9449M75.1854 598L63.3484 600.695M38.9449 598L34.4223 598.001L29.9464 598.007L25.5637 598.023L21.3185 598.056L17.2574 598.108L13.4236 598.187L9.86302 598.297L6.55814 598.436L3.72216 598.63L1.14022 598.854L0.430606 598.932V600.695M38.9449 598L26.5157 600.695M100.181 600.695H137.013M100.181 600.695H63.3484M100.181 600.695L88.5615 603.479M137.013 600.695L126.006 603.479M137.013 600.695H173.846M247.511 600.695H284.344M247.511 600.695H210.678M247.511 600.695L245.246 601.382L238.338 603.479M284.344 600.695L275.782 603.479M284.344 600.695H321.176M394.842 600.695H431.674M394.842 600.695H358.009M394.842 600.695L393.181 601.382L392.345 601.728L388.114 603.479M431.674 600.695L430.92 601.037L430.164 601.382L425.559 603.479M431.674 600.695H468.507M542.172 600.695L541.644 601.037L537.891 603.479M542.172 600.695H579.004M542.172 600.695H505.34M579.004 600.695L578.099 601.382L577.642 601.728L577.185 602.075L575.335 603.479M579.004 600.695H615.837M689.502 600.695H726.335M689.502 600.695H652.669M689.502 600.695L687.668 603.479M726.335 600.695L726.184 601.037L726.033 601.382L725.881 601.728L725.421 602.774L725.112 603.479M726.335 600.695H763.167M836.833 600.695H873.665M836.833 600.695H800M836.833 600.695L837.444 603.479M873.665 600.695L873.816 601.037L873.967 601.382L874.119 601.728L874.888 603.479M873.665 600.695H910.498M984.163 600.695H1021M984.163 600.695H947.331M984.163 600.695L984.918 601.382L986.447 602.774L986.833 603.125L987.221 603.479M1021 600.695L1021.9 601.382L1022.36 601.728L1022.81 602.075L1024.66 603.479M1021 600.695H1057.83M1131.49 600.695H1168.33M1131.49 600.695H1094.66M1131.49 600.695L1132.85 601.382L1133.54 601.728L1137 603.479M1168.33 600.695L1169.08 601.037L1169.84 601.382L1174.44 603.479M1168.33 600.695H1205.16M1278.82 600.695H1315.66M1278.82 600.695H1241.99M1278.82 600.695L1280.79 601.382L1281.77 601.728L1286.77 603.479M1315.66 600.695L1324.22 603.479M1315.66 600.695H1352.49M1426.15 600.695H1462.99M1426.15 600.695H1389.32M1426.15 600.695L1436.55 603.479M1462.99 600.695L1473.99 603.479M1462.99 600.695H1499.82M0.30151 625.895H0.430606M37.374 625.895L51.4365 622.339M37.374 625.895L22.7727 629.588M37.374 625.895H79.7421M37.374 625.895H0.430606M51.4365 622.339H9.8497M51.4365 622.339L64.99 618.911M51.4365 622.339H93.0232M9.8497 622.339L24.1562 618.911M9.8497 622.339H0.430606M9.8497 622.339L0.430606 624.595M51.2682 612.414H90.6753M51.2682 612.414L64.1263 609.333M51.2682 612.414H11.8619M51.2682 612.414L37.9529 615.605M90.6753 612.414L102.857 609.333M90.6753 612.414L78.0613 615.605M90.6753 612.414H130.082M64.1263 609.333H102.857M64.1263 609.333L76.5504 606.357M64.1263 609.333H25.3963M102.857 609.333H141.587M102.857 609.333L114.627 606.357M0.0249919 682.031H0.430606M34.2116 682.031L52.3452 676.135M34.2116 682.031L15.1768 688.221M34.2116 682.031H88.9113M34.2116 682.031H0.430606M52.3452 676.135L69.64 670.511M52.3452 676.135H105.749M52.3452 676.135H0.430606M17.4714 670.511H69.64M17.4714 670.511L35.1636 665.142M17.4714 670.511H0.430606M17.4714 670.511L0.430606 675.683M52.0728 660.01H101.934M52.0728 660.01L68.2508 655.1M52.0728 660.01H2.21131M52.0728 660.01L35.1636 665.142M101.934 660.01L117.034 655.1M101.934 660.01L86.1519 665.142M101.934 660.01H151.797M68.2508 655.1H117.034M68.2508 655.1H19.4679M68.2508 655.1L83.7441 650.398M117.034 655.1L131.494 650.398M117.034 655.1H165.817M112.842 641.567H158.652M112.842 641.567L126.522 637.415M112.842 641.567H67.0314M112.842 641.567L98.5944 645.89M158.652 641.567L171.42 637.415M158.652 641.567L145.355 645.89M158.652 641.567H204.463M126.522 637.415H171.42M126.522 637.415H81.6236M126.522 637.415L139.668 633.425M171.42 637.415L183.69 633.425M171.42 637.415H216.319M164.478 625.895H206.846M164.478 625.895L176.197 622.339M164.478 625.895H122.11M164.478 625.895L152.311 629.588M206.846 625.895L217.784 622.339M206.846 625.895L195.49 629.588M206.846 625.895H249.214M176.197 622.339H217.784M176.197 622.339H134.61M176.197 622.339L187.492 618.911M217.784 622.339L228.325 618.911M217.784 622.339H259.37M208.896 612.414H248.303M208.896 612.414L219.047 609.333M208.896 612.414H169.49M208.896 612.414L198.384 615.605M248.303 612.414L257.777 609.333M248.303 612.414L238.492 615.605M248.303 612.414H287.71M219.047 609.333H257.777M219.047 609.333L228.856 606.357M219.047 609.333H180.317M257.777 609.333H296.508M257.777 609.333L266.932 606.357M28.4547 784.259L53.9759 772.641M28.4547 784.259L1.1244 796.701M28.4547 784.259H105.609M28.4547 784.259H0.430606M53.9759 772.641L77.8639 761.766M53.9759 772.641H128.578M53.9759 772.641H0.430606M53.4579 741.98H121.326M53.4579 741.98L75.267 732.954M53.4579 741.98L30.2954 751.566M53.4579 741.98H0.430606M121.326 741.98L141.152 732.954M121.326 741.98L100.269 751.566M121.326 741.98H189.193M75.267 732.954H141.152M75.267 732.954H9.38245M75.267 732.954L95.8384 724.44M141.152 732.954L159.853 724.44M141.152 732.954H207.037M133.665 708.785H194.241M133.665 708.785L151.094 701.572M133.665 708.785H73.089M133.665 708.785L115.274 716.397M194.241 708.785L210.086 701.572M194.241 708.785L177.521 716.397M194.241 708.785H254.817M151.094 701.572H210.086M151.094 701.572H92.1029M151.094 701.572L167.635 694.726M210.086 701.572L225.123 694.726M210.086 701.572H269.077M198.309 682.031H253.009M198.309 682.031L212.557 676.135M198.309 682.031H143.61M198.309 682.031L183.354 688.221M253.009 682.031L265.961 676.135M253.009 682.031L239.412 688.221M253.009 682.031H307.708M212.557 676.135H265.961M212.557 676.135H159.153M212.557 676.135L226.146 670.511M265.961 676.135L278.314 670.511M265.961 676.135H319.365M251.52 660.01H301.382M251.52 660.01L263.384 655.1M251.52 660.01H201.658M251.52 660.01L239.12 665.142M301.382 660.01L312.168 655.1M301.382 660.01L290.109 665.142M301.382 660.01H351.243M263.384 655.1H312.168M263.384 655.1H214.601M263.384 655.1L274.745 650.398M312.168 655.1L322.496 650.398M312.168 655.1H360.951M296.084 641.567H341.894M296.084 641.567L306.116 637.415M296.084 641.567H250.274M296.084 641.567L285.636 645.89M341.894 641.567L343.055 641.038L351.014 637.415M341.894 641.567L332.397 645.89M341.894 641.567H387.705M306.116 637.415H351.014M306.116 637.415H261.218M306.116 637.415L315.757 633.425M351.014 637.415L359.779 633.425M351.014 637.415H395.913M333.95 625.895H376.319M333.95 625.895L342.545 622.339M333.95 625.895H291.582M333.95 625.895L325.027 629.588M376.319 625.895L384.131 622.339M376.319 625.895L373.313 627.264L368.207 629.588M376.319 625.895H418.687M342.545 622.339H384.131M342.545 622.339H300.958M342.545 622.339L350.827 618.911M384.131 622.339L391.661 618.911M384.131 622.339H425.718M366.523 612.414H405.931M366.523 612.414L373.968 609.333M366.523 612.414H327.117M366.523 612.414L358.815 615.605M405.931 612.414L411.029 610.094L411.865 609.712L412.699 609.333M405.931 612.414L398.923 615.605M405.931 612.414H445.338M373.968 609.333H412.699M373.968 609.333L381.161 606.357M373.968 609.333H335.238M412.699 609.333H451.429M412.699 609.333L419.237 606.357M56.4088 916.612H162.637M56.4088 916.612L89.8575 894.858M56.4088 916.612L19.6536 940.516M56.4088 916.612L0.430606 916.612M162.637 916.612L191.307 894.858M162.637 916.612L131.132 940.516M162.637 916.612H268.864M89.8575 894.858H191.307M89.8575 894.858L120.427 874.978M89.8575 894.858H0.430606M191.307 894.858L217.509 874.978M191.307 894.858H292.756M174.295 839.944H263.682M174.295 839.944L198.149 824.431M174.295 839.944H84.9093M174.295 839.944L148.473 856.738M263.682 839.944L284.128 824.431M263.682 839.944L241.548 856.738M263.682 839.944H353.068M198.149 824.431H284.128M198.149 824.431H112.17M198.149 824.431L220.251 810.057M284.128 824.431L303.073 810.057M284.128 824.431H370.107M259.918 784.259H337.073M259.918 784.259L277.784 772.641M259.918 784.259H182.763M259.918 784.259L240.787 796.701M337.073 784.259L352.386 772.641M337.073 784.259L320.675 796.701M337.073 784.259H414.227M277.784 772.641H352.386M277.784 772.641H203.181M277.784 772.641L294.505 761.766M352.386 772.641L366.718 761.766M352.386 772.641H426.988M324.928 741.98H392.795M324.928 741.98L338.807 732.954M324.928 741.98H257.061M324.928 741.98L310.188 751.566M392.795 741.98L404.691 732.954M392.795 741.98L380.161 751.566M392.795 741.98H460.663M338.807 732.954H404.691M338.807 732.954H272.921M338.807 732.954L351.897 724.44M404.691 732.954L415.912 724.44M404.691 732.954H470.576M375.968 708.785H436.545M375.968 708.785L387.06 701.572M375.968 708.785H315.393M375.968 708.785L364.265 716.397M436.545 708.785L446.052 701.572M436.545 708.785L426.513 716.397M436.545 708.785H497.121M387.06 701.572H446.052M387.06 701.572H328.068M387.06 701.572L397.586 694.726M446.052 701.572L455.073 694.726M446.052 701.572H505.043M417.106 682.031H471.805M417.106 682.031L426.173 676.135M417.106 682.031H362.407M417.106 682.031L407.589 688.221M471.805 682.031L479.577 676.135M471.805 682.031L463.647 688.221M471.805 682.031H526.504M426.173 676.135H479.577M426.173 676.135H372.768M426.173 676.135L434.82 670.511M479.577 676.135L486.989 670.511M479.577 676.135H532.981M450.967 660.01H500.83M450.967 660.01L458.517 655.1M450.967 660.01H401.106M450.967 660.01L443.076 665.142M500.83 660.01L507.3 655.1M500.83 660.01L494.066 665.142M500.83 660.01H550.691M458.517 655.1H507.3M458.517 655.1H409.734M458.517 655.1L465.748 650.398M507.3 655.1L513.498 650.398M507.3 655.1H556.084M479.326 641.567H525.137M479.326 641.567L485.71 637.415M479.326 641.567H433.516M479.326 641.567L472.677 645.89M525.137 641.567L524.437 642.097L519.438 645.89M525.137 641.567L530.609 637.415M525.137 641.567H570.948M485.71 637.415H530.609M485.71 637.415H440.812M485.71 637.415L491.845 633.425M530.609 637.415L535.867 633.425M530.609 637.415H575.508M503.423 625.895H545.791M503.423 625.895L508.892 622.339M503.423 625.895H461.055M503.423 625.895L497.745 629.588M545.791 625.895L550.479 622.339M545.791 625.895L543.988 627.264L542.771 628.187L540.925 629.588M545.791 625.895H588.159M508.892 622.339H550.479M508.892 622.339H467.305M508.892 622.339L514.162 618.911M550.479 622.339L552.193 621.038L553.322 620.181L554.997 618.911M550.479 622.339H592.065M524.152 612.414H563.558M524.152 612.414L527.72 610.094L528.889 609.333M524.152 612.414H484.745M524.152 612.414L519.868 615.199L519.246 615.605M563.558 612.414L566.617 610.094L567.119 609.712L567.619 609.333M563.558 612.414L561.474 613.995L559.354 615.605M563.558 612.414H602.965M528.889 609.333H567.619M528.889 609.333L533.466 606.357M528.889 609.333H490.159M567.619 609.333H606.349M567.619 609.333L571.542 606.357M481.318 916.612H587.545M481.318 916.612L495.653 894.858M481.318 916.612H375.091M481.318 916.612L465.566 940.516M587.545 916.612L597.103 894.858M587.545 916.612L577.044 940.516M587.545 916.612H693.773M495.653 894.858H597.103M495.653 894.858H394.204M495.653 894.858L508.754 874.978M597.103 894.858L605.836 874.978M597.103 894.858H698.551M531.841 839.944H621.227M531.841 839.944L542.064 824.431M531.841 839.944H442.454M531.841 839.944L520.774 856.738M621.227 839.944L628.043 824.431M621.227 839.944L613.85 856.738M621.227 839.944H710.614M542.064 824.431H628.043M542.064 824.431H456.085M542.064 824.431L551.536 810.057M628.043 824.431L634.358 810.057M628.043 824.431H714.021M568.536 784.259H645.691M568.536 784.259L576.193 772.641M568.536 784.259H491.382M568.536 784.259L560.337 796.701M645.691 784.259L650.795 772.641M645.691 784.259L640.225 796.701M645.691 784.259H722.846M576.193 772.641H650.795M576.193 772.641H501.591M576.193 772.641L583.359 761.766M650.795 772.641L655.573 761.766M650.795 772.641H725.398M596.398 741.98H664.265M596.398 741.98L602.346 732.954M596.398 741.98H528.53M596.398 741.98L590.081 751.566M664.265 741.98L668.23 732.954M664.265 741.98L660.054 751.566M664.265 741.98H732.132M602.346 732.954H668.23M602.346 732.954H536.461M602.346 732.954L607.956 724.44M668.23 732.954L671.971 724.44M668.23 732.954H734.116M618.272 708.785H678.849M618.272 708.785L623.025 701.572M618.272 708.785H557.696M618.272 708.785L613.256 716.397M678.849 708.785L682.017 701.572M678.849 708.785L675.505 716.397M678.849 708.785H739.424M623.025 701.572H682.017M623.025 701.572H564.035M623.025 701.572L627.537 694.726M682.017 701.572L685.025 694.726M682.017 701.572H741.009M635.903 682.031H690.602M635.903 682.031L639.788 676.135M635.903 682.031H581.204M635.903 682.031L631.824 688.221M690.602 682.031L693.193 676.135M690.602 682.031L687.882 688.221M690.602 682.031H745.301M639.788 676.135H693.193M639.788 676.135H586.384M639.788 676.135L641.199 673.995L643.494 670.511M693.193 676.135L695.663 670.511M693.193 676.135H746.596M650.415 660.01H700.276M650.415 660.01L653.651 655.1M650.415 660.01H600.552M650.415 660.01L647.893 663.837L647.032 665.142M700.276 660.01L701.097 658.143L702.433 655.1M700.276 660.01L698.022 665.142M700.276 660.01H750.139M653.651 655.1L654.045 654.501L656.749 650.398M653.651 655.1H702.433M653.651 655.1H604.867M702.433 655.1L703.219 653.313L703.477 652.723L703.735 652.138L704.499 650.398M702.433 655.1H751.217M662.568 641.567H708.379M662.568 641.567L663.95 639.47L664.292 638.952L664.63 638.437L664.969 637.925L665.304 637.415M662.568 641.567H616.758M662.568 641.567L659.719 645.89M708.379 641.567L709.754 638.437L709.979 637.925L710.203 637.415M708.379 641.567L706.48 645.89M708.379 641.567H754.19M665.304 637.415H710.203M665.304 637.415H620.406M665.304 637.415L666.96 634.903L667.286 634.407L667.934 633.425M710.203 637.415L711.306 634.903L711.524 634.407L711.74 633.915L711.956 633.425M710.203 637.415H755.102M672.896 625.895H715.264M672.896 625.895L675.24 622.339M672.896 625.895H630.527M672.896 625.895L672.296 626.805L671.385 628.187L670.462 629.588M715.264 625.895L715.064 626.349L713.847 629.118L713.642 629.588M715.264 625.895L716.827 622.339M715.264 625.895H757.632M675.24 622.339H716.827M675.24 622.339H633.653M675.24 622.339L677.499 618.911M716.827 622.339L717.398 621.038L717.586 620.609L717.774 620.181L718.332 618.911M716.827 622.339H758.413M681.78 612.414H721.186M681.78 612.414L683.309 610.094L683.809 609.333M681.78 612.414H642.372M681.78 612.414L680.999 613.597L680.738 613.995L680.474 614.395L679.677 615.605M721.186 612.414L721.358 612.023L721.699 611.246L722.038 610.476L722.539 609.333M721.186 612.414L720.491 613.995L720.316 614.395L719.962 615.199L719.785 615.605M721.186 612.414H760.593M683.809 609.333H722.539M683.809 609.333L685.529 606.723L685.772 606.357M683.809 609.333H645.079M722.539 609.333L722.706 608.956L722.871 608.58L723.036 608.205L723.199 607.832L723.686 606.723L723.848 606.357M722.539 609.333H761.27M906.227 916.612H1012.45M906.227 916.612L901.449 894.858M906.227 916.612H800M906.227 916.612L911.478 940.516M1012.45 916.612L1002.9 894.858M1012.45 916.612L1022.96 940.516M1012.45 916.612H1118.68M901.449 894.858H1002.9M901.449 894.858H800M901.449 894.858L897.082 874.978M1002.9 894.858L994.164 874.978M1002.9 894.858H1104.35M889.386 839.944H978.773M889.386 839.944L885.979 824.431M889.386 839.944H800M889.386 839.944L893.076 856.738M978.773 839.944L971.957 824.431M978.773 839.944L986.151 856.738M978.773 839.944H1068.16M885.979 824.431H971.957M885.979 824.431H800M885.979 824.431L882.821 810.057M971.957 824.431L965.643 810.057M971.957 824.431H1057.94M877.154 784.259H954.309M877.154 784.259L874.602 772.641M877.154 784.259H800M877.154 784.259L879.888 796.701M954.309 784.259L949.205 772.641M954.309 784.259L959.775 796.701M954.309 784.259H1031.46M874.602 772.641H949.205M874.602 772.641H800M874.602 772.641L872.214 761.766M949.205 772.641L944.427 761.766M949.205 772.641H1023.81M867.868 741.98H935.735M867.868 741.98L865.885 732.954M867.868 741.98H800M867.868 741.98L869.973 751.566M935.735 741.98L931.77 732.954M935.735 741.98L939.946 751.566M935.735 741.98H1003.6M865.885 732.954H931.77M865.885 732.954H800M865.885 732.954L864.015 724.44M931.77 732.954L928.029 724.44M931.77 732.954H997.654M860.576 708.785H921.151M860.576 708.785L858.992 701.572M860.576 708.785H800M860.576 708.785L862.248 716.397M921.151 708.785L917.983 701.572M921.151 708.785L924.495 716.397M921.151 708.785H981.728M858.992 701.572H917.983M858.992 701.572H800M858.992 701.572L857.487 694.726M917.983 701.572L914.976 694.726M917.983 701.572H976.975M854.699 682.031H909.399M854.699 682.031L853.404 676.135M854.699 682.031H800M854.699 682.031L856.059 688.221M909.399 682.031L906.808 676.135M909.399 682.031L912.118 688.221M909.399 682.031H964.097M853.404 676.135H906.808M853.404 676.135H800M853.404 676.135L852.169 670.511M906.808 676.135L904.337 670.511M906.808 676.135H960.212M849.862 660.01H899.724M849.862 660.01L848.783 655.1M849.862 660.01H800M849.862 660.01L850.989 665.142M899.724 660.01L897.831 655.702L897.567 655.1M899.724 660.01L901.978 665.142M899.724 660.01H949.585M848.783 655.1L848.652 654.501L847.75 650.398M848.783 655.1H897.567M848.783 655.1H800M897.567 655.1L896.781 653.313L896.523 652.723L896.265 652.138L895.501 650.398M897.567 655.1H946.35M845.81 641.567H891.622M845.81 641.567L844.898 637.415M845.81 641.567H800M845.81 641.567L846.162 643.167L846.281 643.706L846.399 644.248L846.639 645.34L846.761 645.89M891.622 641.567L890.246 638.437L889.797 637.415M891.622 641.567L893.521 645.89M891.622 641.567H937.432M844.898 637.415H889.797M844.898 637.415H800M844.898 637.415L844.022 633.425M889.797 637.415L888.694 634.903L888.476 634.407L888.26 633.915L888.044 633.425M889.797 637.415H934.696M842.368 625.895H884.736M842.368 625.895L841.587 622.339M842.368 625.895H800M842.368 625.895L843.179 629.588M884.736 625.895L884.936 626.349L886.153 629.118L886.359 629.588M884.736 625.895L883.174 622.339M884.736 625.895H927.104M841.587 622.339H883.174M841.587 622.339H800M841.587 622.339L840.834 618.911M883.174 622.339L882.602 621.038L882.414 620.609L882.226 620.181L881.668 618.911M883.174 622.339H924.76M839.407 612.414H878.814M839.407 612.414L838.73 609.333M839.407 612.414H800M839.407 612.414L840.108 615.605M878.814 612.414L878.642 612.023L878.3 611.246L878.131 610.86L877.794 610.094L877.627 609.712L877.46 609.333M878.814 612.414L879.509 613.995L879.684 614.395L880.038 615.199L880.215 615.605M878.814 612.414H918.221M838.73 609.333L838.648 608.956L838.564 608.58L838.483 608.205L838.076 606.357M838.73 609.333H877.46M838.73 609.333H800M877.46 609.333H916.191M877.46 609.333L877.129 608.58L876.964 608.205L876.801 607.832L876.314 606.723L876.152 606.357M1331.14 916.612H1437.36M1331.14 916.612L1307.24 894.858M1331.14 916.612H1224.91M1331.14 916.612L1357.39 940.516M1437.36 916.612L1408.69 894.858M1437.36 916.612L1468.87 940.516M1437.36 916.612H1543.59M1307.24 894.858H1408.69M1307.24 894.858H1205.8M1307.24 894.858L1285.41 874.978M1408.69 894.858L1382.49 874.978M1408.69 894.858H1510.14M1246.93 839.944H1336.32M1246.93 839.944L1229.89 824.431M1246.93 839.944H1157.55M1246.93 839.944L1265.38 856.738M1336.32 839.944L1315.87 824.431M1336.32 839.944L1358.45 856.738M1336.32 839.944H1425.7M1229.89 824.431H1315.87M1229.89 824.431H1143.91M1229.89 824.431L1214.11 810.057M1315.87 824.431L1296.93 810.057M1315.87 824.431H1401.85M1185.77 784.259H1262.93M1185.77 784.259L1173.01 772.641M1185.77 784.259H1108.62M1185.77 784.259L1199.44 796.701M1262.93 784.259L1247.61 772.641M1262.93 784.259L1279.33 796.701M1262.93 784.259H1340.08M1173.01 772.641H1247.61M1173.01 772.641H1098.41M1173.01 772.641L1161.07 761.766M1247.61 772.641L1233.28 761.766M1247.61 772.641H1322.22M1139.34 741.98H1207.2M1139.34 741.98L1129.42 732.954M1139.34 741.98H1071.47M1139.34 741.98L1149.87 751.566M1207.2 741.98L1195.31 732.954M1207.2 741.98L1219.84 751.566M1207.2 741.98H1275.07M1129.42 732.954H1195.31M1129.42 732.954H1063.54M1129.42 732.954L1120.07 724.44M1195.31 732.954L1184.09 724.44M1195.31 732.954H1261.19M1102.88 708.785H1163.46M1102.88 708.785L1094.96 701.572M1102.88 708.785H1042.3M1102.88 708.785L1111.24 716.397M1163.46 708.785L1153.95 701.572M1163.46 708.785L1173.49 716.397M1163.46 708.785H1224.03M1094.96 701.572H1153.95M1094.96 701.572H1035.97M1094.96 701.572L1087.44 694.726M1153.95 701.572L1144.93 694.726M1153.95 701.572H1212.94M1073.5 682.031H1128.2M1073.5 682.031L1067.02 676.135M1073.5 682.031H1018.8M1073.5 682.031L1080.29 688.221M1128.2 682.031L1120.42 676.135M1128.2 682.031L1136.35 688.221M1128.2 682.031H1182.89M1067.02 676.135H1120.42M1067.02 676.135H1013.62M1067.02 676.135L1060.84 670.511M1120.42 676.135L1113.01 670.511M1120.42 676.135H1173.83M1049.31 660.01L1050 660.639L1050.7 661.271L1054.95 665.142M1049.31 660.01H1099.17M1049.31 660.01L1043.92 655.1M1049.31 660.01H999.448M1099.17 660.01L1092.7 655.1M1099.17 660.01L1105.93 665.142M1099.17 660.01H1149.03M1043.92 655.1H1092.7M1043.92 655.1H995.133M1043.92 655.1L1038.75 650.398M1092.7 655.1L1086.5 650.398M1092.7 655.1H1141.48M1029.05 641.567H1074.86M1029.05 641.567L1024.49 637.415M1029.05 641.567H983.242M1029.05 641.567L1033.8 645.89M1074.86 641.567L1071.42 638.952L1069.39 637.415M1074.86 641.567L1080.56 645.89M1074.86 641.567H1120.67M1024.49 637.415H1069.39M1024.49 637.415H979.594M1024.49 637.415L1020.65 633.915L1020.11 633.425M1069.39 637.415L1064.13 633.425M1069.39 637.415H1114.29M1011.84 625.895H1054.21M1011.84 625.895L1010.85 624.993L1007.93 622.339M1011.84 625.895H969.473M1011.84 625.895L1012.84 626.805L1014.87 628.651L1015.9 629.588M1054.21 625.895L1049.52 622.339M1054.21 625.895L1056.01 627.264L1057.23 628.187L1059.08 629.588M1054.21 625.895H1096.58M1007.93 622.339H1049.52M1007.93 622.339H966.347M1007.93 622.339L1005.1 619.755L1004.17 618.911M1049.52 622.339L1047.81 621.038L1046.68 620.181L1045 618.911M1049.52 622.339H1091.11M997.035 612.414H1036.44M997.035 612.414L994.906 610.476L993.651 609.333M997.035 612.414H957.628M997.035 612.414L1000.54 615.605M1036.44 612.414L1033.38 610.094L1032.88 609.712L1032.38 609.333M1036.44 612.414L1038.53 613.995L1040.65 615.605M1036.44 612.414H1075.85M993.651 609.333H1032.38M993.651 609.333L992.002 607.832L991.189 607.091L990.784 606.723L990.382 606.357M993.651 609.333H954.921M1032.38 609.333H1071.11M1032.38 609.333L1028.46 606.357M1573.81 824.431H1487.83M1573.81 824.431L1545.39 810.057M1573.81 824.431H1599.57M1573.81 824.431L1599.57 837.462M1494.39 784.259H1571.55M1494.39 784.259L1471.42 772.641M1494.39 784.259H1417.24M1494.39 784.259L1518.99 796.701M1571.55 784.259L1546.02 772.641M1571.55 784.259L1598.88 796.701M1571.55 784.259H1599.57M1471.42 772.641H1546.02M1471.42 772.641H1396.82M1471.42 772.641L1449.92 761.766M1546.02 772.641L1522.14 761.766M1546.02 772.641H1599.57M1410.81 741.98H1478.67M1410.81 741.98L1392.96 732.954M1410.81 741.98H1342.94M1410.81 741.98L1429.76 751.566M1478.67 741.98L1458.85 732.954M1478.67 741.98L1499.73 751.566M1478.67 741.98H1546.54M1392.96 732.954H1458.85M1392.96 732.954H1327.08M1392.96 732.954L1376.13 724.44M1458.85 732.954L1440.15 724.44M1458.85 732.954H1524.73M1345.18 708.785H1405.76M1345.18 708.785L1330.92 701.572M1345.18 708.785H1284.61M1345.18 708.785L1360.23 716.397M1405.76 708.785L1389.91 701.572M1405.76 708.785L1422.48 716.397M1405.76 708.785H1466.34M1330.92 701.572H1389.91M1330.92 701.572H1271.93M1330.92 701.572L1317.39 694.726M1389.91 701.572L1374.88 694.726M1389.91 701.572H1448.91M1292.29 682.031H1346.99M1292.29 682.031L1280.64 676.135M1292.29 682.031H1237.59M1292.29 682.031L1304.53 688.221M1346.99 682.031L1334.04 676.135M1346.99 682.031L1360.59 688.221M1346.99 682.031H1401.69M1280.64 676.135H1334.04M1280.64 676.135H1227.23M1280.64 676.135L1269.52 670.511M1334.04 676.135L1321.69 670.511M1334.04 676.135H1387.44M1248.76 660.01H1298.62M1248.76 660.01L1239.05 655.1M1248.76 660.01H1198.89M1248.76 660.01L1258.9 665.142M1298.62 660.01L1287.83 655.1M1298.62 660.01L1309.89 665.142M1298.62 660.01H1348.48M1239.05 655.1H1287.83M1239.05 655.1H1190.27M1239.05 655.1L1229.75 650.398M1287.83 655.1L1277.5 650.398M1287.83 655.1H1336.62M1212.29 641.567H1258.11M1212.29 641.567L1204.09 637.415M1212.29 641.567H1166.48M1212.29 641.567L1220.84 645.89M1258.11 641.567L1248.99 637.415M1258.11 641.567L1267.6 645.89M1258.11 641.567H1303.92M1204.09 637.415H1248.99M1204.09 637.415H1159.19M1204.09 637.415L1196.2 633.425M1248.99 637.415L1240.22 633.425M1248.99 637.415H1293.88M1181.31 625.895H1223.68M1181.31 625.895L1174.28 622.339M1181.31 625.895H1138.95M1181.31 625.895L1183.11 626.805L1184.02 627.264L1188.61 629.588M1223.68 625.895L1215.87 622.339M1223.68 625.895L1231.79 629.588M1223.68 625.895H1266.05M1174.28 622.339H1215.87M1174.28 622.339H1132.7M1174.28 622.339L1167.51 618.911M1215.87 622.339L1208.34 618.911M1215.87 622.339H1257.46M1154.66 612.414H1194.07M1154.66 612.414L1148.57 609.333M1154.66 612.414H1115.26M1154.66 612.414L1160.97 615.605M1194.07 612.414L1188.97 610.094L1188.14 609.712L1187.3 609.333M1194.07 612.414L1201.08 615.605M1194.07 612.414H1233.48M1148.57 609.333H1187.3M1148.57 609.333L1143.41 606.723L1142.69 606.357M1148.57 609.333H1109.84M1187.3 609.333H1226.03M1187.3 609.333L1180.76 606.357M1587.49 708.785L1566.89 701.572M1587.49 708.785H1526.91M1587.49 708.785L1599.57 713.016M1587.49 708.785H1599.57M1566.89 701.572H1507.9M1566.89 701.572L1547.34 694.726M1566.89 701.572H1599.57M1511.09 682.031H1565.79M1511.09 682.031L1494.25 676.135M1511.09 682.031H1456.39M1511.09 682.031L1528.76 688.221M1565.79 682.031L1547.65 676.135M1565.79 682.031L1584.82 688.221M1565.79 682.031H1599.57M1494.25 676.135H1547.65M1494.25 676.135H1440.85M1494.25 676.135L1478.19 670.511M1547.65 676.135L1530.36 670.511M1547.65 676.135H1599.57M1448.2 660.01H1498.07M1448.2 660.01L1434.18 655.1M1448.2 660.01H1398.34M1448.2 660.01L1462.86 665.142M1498.07 660.01L1482.97 655.1M1498.07 660.01L1513.85 665.142M1498.07 660.01H1547.93M1434.18 655.1H1482.97M1434.18 655.1H1385.4M1434.18 655.1L1420.75 650.398M1482.97 655.1L1468.51 650.398M1482.97 655.1H1531.75M1395.54 641.567H1441.35M1395.54 641.567L1383.68 637.415M1395.54 641.567H1349.73M1395.54 641.567L1407.88 645.89M1441.35 641.567L1428.58 637.415M1441.35 641.567L1454.65 645.89M1441.35 641.567H1487.16M1383.68 637.415H1428.58M1383.68 637.415H1338.78M1383.68 637.415L1372.29 633.425M1428.58 637.415L1416.31 633.425M1428.58 637.415H1473.48M1350.79 625.895H1393.15M1350.79 625.895L1340.63 622.339M1350.79 625.895H1308.42M1350.79 625.895L1361.33 629.588M1393.15 625.895L1382.22 622.339M1393.15 625.895L1404.51 629.588M1393.15 625.895H1435.52M1340.63 622.339H1382.22M1340.63 622.339H1299.04M1340.63 622.339L1330.84 618.911M1382.22 622.339L1371.67 618.911M1382.22 622.339H1423.8M1312.29 612.414H1351.7M1312.29 612.414L1303.49 609.333M1312.29 612.414H1272.88M1312.29 612.414L1321.4 615.605M1351.7 612.414L1342.22 609.333M1351.7 612.414L1361.51 615.605M1351.7 612.414H1391.1M1303.49 609.333H1342.22M1303.49 609.333L1294.99 606.357M1303.49 609.333H1264.76M1342.22 609.333H1380.95M1342.22 609.333L1333.07 606.357M1578.78 641.567L1563.27 637.415M1578.78 641.567H1532.97M1578.78 641.567L1594.93 645.89M1578.78 641.567H1599.57M1563.27 637.415H1518.38M1563.27 637.415L1548.38 633.425M1563.27 637.415H1599.57M1520.26 625.895H1562.63M1520.26 625.895L1506.98 622.339M1520.26 625.895H1477.89M1520.26 625.895L1534.05 629.588M1562.63 625.895L1548.56 622.339M1562.63 625.895L1577.23 629.588M1562.63 625.895H1599.57M1506.98 622.339H1548.56M1506.98 622.339H1465.39M1506.98 622.339L1494.18 618.911M1548.56 622.339L1535.01 618.911M1548.56 622.339H1590.15M1469.92 612.414H1509.32M1469.92 612.414L1458.41 609.333M1469.92 612.414H1430.51M1469.92 612.414L1481.83 615.605M1509.32 612.414L1497.14 609.333M1509.32 612.414L1521.94 615.605M1509.32 612.414H1548.73M1458.41 609.333H1497.14M1458.41 609.333L1447.3 606.357M1458.41 609.333H1419.68M1497.14 609.333H1535.87M1497.14 609.333L1485.37 606.357M1521.94 615.605L1535.01 618.911M1521.94 615.605H1562.05M1521.94 615.605H1481.83M1548.73 612.414L1535.87 609.333M1548.73 612.414L1562.05 615.605M1548.73 612.414H1588.14M1535.87 609.333H1574.6M1535.87 609.333L1523.45 606.357M1485.37 606.357H1447.3M1485.37 606.357H1523.45M1485.37 606.357L1473.99 603.479M1562.05 615.605L1575.84 618.911M1562.05 615.605H1599.57M1588.14 612.414L1574.6 609.333M1588.14 612.414L1599.57 615.016M1588.14 612.414H1599.57M1574.6 609.333L1561.53 606.357M1574.6 609.333H1599.57M1523.45 606.357H1561.53M1523.45 606.357L1511.44 603.479M1561.53 606.357L1548.88 603.479M1561.53 606.357H1599.57M1535.01 618.911H1575.84M1535.01 618.911H1494.18M1590.15 622.339L1575.84 618.911M1590.15 622.339L1599.57 624.595M1590.15 622.339H1599.57M1575.84 618.911H1599.57M1494.18 618.911H1453.34M1494.18 618.911L1481.83 615.605M1481.83 615.605H1441.72M1577.23 629.588L1592.4 633.425M1577.23 629.588H1534.05M1577.23 629.588H1599.57M1599.7 625.895H1599.57M1592.4 633.425H1548.38M1592.4 633.425L1599.57 635.238M1592.4 633.425H1599.57M1548.38 633.425H1504.35M1548.38 633.425L1534.05 629.588M1534.05 629.588H1490.87M1361.51 615.605L1371.67 618.911M1361.51 615.605H1401.62M1361.51 615.605H1321.4M1391.1 612.414L1380.95 609.333M1391.1 612.414L1401.62 615.605M1391.1 612.414H1430.51M1380.95 609.333H1419.68M1380.95 609.333L1371.14 606.357M1333.07 606.357H1371.14M1333.07 606.357L1324.22 603.479M1333.07 606.357H1294.99M1401.62 615.605L1412.51 618.911M1401.62 615.605H1441.72M1430.51 612.414L1419.68 609.333M1430.51 612.414L1441.72 615.605M1419.68 609.333L1409.22 606.357M1371.14 606.357H1409.22M1371.14 606.357L1361.66 603.479M1441.72 615.605L1453.34 618.911M1447.3 606.357H1409.22M1447.3 606.357L1436.55 603.479M1409.22 606.357L1399.11 603.479M1371.67 618.911H1412.51M1371.67 618.911H1330.84M1423.8 622.339L1412.51 618.911M1423.8 622.339L1435.52 625.895M1423.8 622.339H1465.39M1412.51 618.911H1453.34M1330.84 618.911H1290.01M1330.84 618.911L1321.4 615.605M1453.34 618.911L1465.39 622.339M1321.4 615.605H1281.29M1435.52 625.895L1447.69 629.588M1435.52 625.895H1477.89M1465.39 622.339L1477.89 625.895M1477.89 625.895L1490.87 629.588M1404.51 629.588L1416.31 633.425M1404.51 629.588H1447.69M1404.51 629.588H1361.33M1447.69 629.588L1460.33 633.425M1447.69 629.588H1490.87M1490.87 629.588L1504.35 633.425M1416.31 633.425H1460.33M1416.31 633.425H1372.29M1473.48 637.415L1460.33 633.425M1473.48 637.415L1487.16 641.567M1473.48 637.415H1518.38M1460.33 633.425H1504.35M1372.29 633.425H1328.27M1372.29 633.425L1361.33 629.588M1504.35 633.425L1518.38 637.415M1361.33 629.588H1318.15M1487.16 641.567L1501.41 645.89M1487.16 641.567H1532.97M1518.38 637.415L1532.97 641.567M1532.97 641.567L1548.17 645.89M1454.65 645.89L1468.51 650.398M1454.65 645.89H1501.41M1454.65 645.89H1407.88M1501.41 645.89L1516.26 650.398M1501.41 645.89H1548.17M1548.17 645.89L1564.01 650.398M1548.17 645.89H1594.93M1594.93 645.89H1599.57M1594.93 645.89L1599.57 647.134M1468.51 650.398H1516.26M1468.51 650.398H1420.75M1531.75 655.1L1516.26 650.398M1531.75 655.1L1547.93 660.01M1531.75 655.1H1580.53M1516.26 650.398H1564.01M1420.75 650.398H1373M1420.75 650.398L1407.88 645.89M1564.01 650.398L1580.53 655.1M1564.01 650.398H1599.57M1407.88 645.89H1361.12M1547.93 660.01L1564.84 665.142M1547.93 660.01H1597.79M1580.53 655.1L1597.79 660.01M1580.53 655.1H1599.57M1599.82 650.398H1599.57M1597.79 660.01L1599.57 660.516M1597.79 660.01H1599.57M1513.85 665.142L1530.36 670.511M1513.85 665.142H1564.84M1513.85 665.142H1462.86M1564.84 665.142L1582.53 670.511M1564.84 665.142H1599.57M1600 660.639L1599.57 660.516M1530.36 670.511H1582.53M1530.36 670.511H1478.19M1582.53 670.511H1599.57M1582.53 670.511L1599.57 675.683M1478.19 670.511H1426.02M1478.19 670.511L1462.86 665.142M1462.86 665.142H1411.87M1584.82 688.221H1528.76M1584.82 688.221L1599.57 693.016M1584.82 688.221H1599.57M1599.98 682.031H1599.57M1528.76 688.221H1472.71M1528.76 688.221L1547.34 694.726M1599.73 693.069L1599.57 693.016M1201.08 615.605L1208.34 618.911M1201.08 615.605H1241.18M1201.08 615.605H1160.97M1233.48 612.414L1226.03 609.333M1233.48 612.414L1241.18 615.605M1233.48 612.414H1272.88M1226.03 609.333H1264.76M1226.03 609.333L1218.84 606.357M1180.76 606.357H1218.84M1180.76 606.357L1178.37 605.266L1174.44 603.479M1180.76 606.357H1142.69M1241.18 615.605L1249.17 618.911M1241.18 615.605H1281.29M1272.88 612.414L1264.76 609.333M1272.88 612.414L1281.29 615.605M1264.76 609.333L1256.92 606.357M1218.84 606.357H1256.92M1218.84 606.357L1211.89 603.479M1281.29 615.605L1290.01 618.911M1294.99 606.357L1286.77 603.479M1294.99 606.357H1256.92M1256.92 606.357L1255.95 605.991L1254.04 605.266L1249.33 603.479M1208.34 618.911H1249.17M1208.34 618.911H1167.51M1257.46 622.339L1249.17 618.911M1257.46 622.339L1266.05 625.895M1257.46 622.339H1299.04M1249.17 618.911H1290.01M1167.51 618.911H1126.67M1167.51 618.911L1160.97 615.605M1290.01 618.911L1299.04 622.339M1160.97 615.605H1120.86M1266.05 625.895L1274.97 629.588M1266.05 625.895H1308.42M1299.04 622.339L1300.2 622.775L1308.42 625.895M1308.42 625.895L1318.15 629.588M1231.79 629.588L1232.83 630.06L1240.22 633.425M1231.79 629.588H1274.97M1231.79 629.588H1188.61M1274.97 629.588L1284.24 633.425M1274.97 629.588H1318.15M1318.15 629.588L1328.27 633.425M1240.22 633.425H1284.24M1240.22 633.425H1196.2M1293.88 637.415L1284.24 633.425M1293.88 637.415L1303.92 641.567M1293.88 637.415H1338.78M1284.24 633.425H1328.27M1196.2 633.425H1152.18M1196.2 633.425L1188.61 629.588M1328.27 633.425L1338.78 637.415M1188.61 629.588H1145.43M1303.92 641.567L1314.36 645.89M1303.92 641.567H1349.73M1338.78 637.415L1349.73 641.567M1349.73 641.567L1361.12 645.89M1267.6 645.89L1277.5 650.398M1267.6 645.89H1314.36M1267.6 645.89H1220.84M1314.36 645.89L1325.25 650.398M1314.36 645.89H1361.12M1361.12 645.89L1373 650.398M1277.5 650.398H1325.25M1277.5 650.398H1229.75M1336.62 655.1L1325.25 650.398M1336.62 655.1L1348.48 660.01M1336.62 655.1H1385.4M1325.25 650.398H1373M1229.75 650.398H1182M1229.75 650.398L1220.84 645.89M1373 650.398L1385.4 655.1M1220.84 645.89H1174.08M1348.48 660.01L1360.88 665.142M1348.48 660.01H1398.34M1385.4 655.1L1398.34 660.01M1398.34 660.01L1411.87 665.142M1309.89 665.142L1321.69 670.511M1309.89 665.142H1360.88M1309.89 665.142H1258.9M1360.88 665.142L1373.85 670.511M1360.88 665.142H1411.87M1411.87 665.142L1426.02 670.511M1321.69 670.511H1373.85M1321.69 670.511H1269.52M1387.44 676.135L1373.85 670.511M1387.44 676.135L1401.69 682.031M1387.44 676.135H1440.85M1373.85 670.511H1426.02M1269.52 670.511H1217.35M1269.52 670.511L1258.9 665.142M1426.02 670.511L1440.85 676.135M1258.9 665.142H1207.91M1401.69 682.031L1416.65 688.221M1401.69 682.031H1456.39M1440.85 676.135L1456.39 682.031M1456.39 682.031L1472.71 688.221M1360.59 688.221L1374.88 694.726M1360.59 688.221H1416.65M1360.59 688.221H1304.53M1416.65 688.221L1432.37 694.726M1416.65 688.221H1472.71M1472.71 688.221L1489.85 694.726M1374.88 694.726H1432.37M1374.88 694.726H1317.39M1448.91 701.572L1432.37 694.726M1448.91 701.572L1466.34 708.785M1448.91 701.572H1507.9M1432.37 694.726H1489.85M1317.39 694.726H1259.9M1317.39 694.726L1304.53 688.221M1489.85 694.726L1507.9 701.572M1489.85 694.726H1547.34M1304.53 688.221H1248.47M1466.34 708.785L1484.73 716.397M1466.34 708.785H1526.91M1507.9 701.572L1526.91 708.785M1547.34 694.726H1599.57M1526.91 708.785L1546.97 716.397M1422.48 716.397L1440.15 724.44M1422.48 716.397H1484.73M1422.48 716.397H1360.23M1484.73 716.397L1504.16 724.44M1484.73 716.397H1546.97M1546.97 716.397L1568.18 724.44M1546.97 716.397H1599.57M1440.15 724.44H1504.16M1440.15 724.44H1376.13M1524.73 732.954L1504.16 724.44M1524.73 732.954L1546.54 741.98M1524.73 732.954H1590.62M1504.16 724.44H1568.18M1376.13 724.44H1312.12M1376.13 724.44L1360.23 716.397M1568.18 724.44L1590.62 732.954M1568.18 724.44H1599.57M1360.23 716.397H1297.98M1546.54 741.98L1569.7 751.566M1546.54 741.98H1599.57M1590.62 732.954H1599.57M1590.62 732.954L1599.57 736.35M1499.73 751.566L1522.14 761.766M1499.73 751.566H1569.7M1499.73 751.566H1429.76M1569.7 751.566L1594.35 761.766M1569.7 751.566H1599.57M1522.14 761.766H1594.35M1522.14 761.766H1449.92M1594.35 761.766L1599.57 763.926M1594.35 761.766H1599.57M1449.92 761.766H1377.71M1449.92 761.766L1429.76 751.566M1429.76 751.566H1359.79M1598.88 796.701H1518.99M1598.88 796.701H1599.57M1598.88 796.701L1599.57 797.017M1518.99 796.701H1439.1M1518.99 796.701L1545.39 810.057M1040.65 615.605L1042.26 616.83L1042.81 617.243L1045 618.911M1040.65 615.605H1080.75M1040.65 615.605H1000.54M1075.85 612.414L1072.28 610.094L1071.11 609.333M1075.85 612.414L1080.13 615.199L1080.75 615.605M1075.85 612.414H1115.26M1071.11 609.333H1109.84M1071.11 609.333L1066.53 606.357M1028.46 606.357H1066.53M1028.46 606.357L1027.02 605.266L1024.66 603.479M1028.46 606.357H990.382M1080.75 615.605L1082.01 616.42L1085.84 618.911M1080.75 615.605H1120.86M1115.26 612.414L1109.84 609.333M1115.26 612.414L1120.86 615.605M1109.84 609.333L1105.9 607.091L1104.61 606.357M1066.53 606.357H1104.61M1066.53 606.357L1062.11 603.479M1120.86 615.605L1126.67 618.911M1142.69 606.357L1141.97 605.991L1137 603.479M1142.69 606.357H1104.61M1104.61 606.357L1102.69 605.266L1099.55 603.479M1045 618.911H1085.84M1045 618.911H1004.17M1091.11 622.339L1085.84 618.911M1091.11 622.339L1096.58 625.895M1091.11 622.339H1132.7M1085.84 618.911H1126.67M1004.17 618.911H963.335M1004.17 618.911L1000.54 615.605M1126.67 618.911L1132.7 622.339M1000.54 615.605H960.431M1096.58 625.895L1100.1 628.187L1100.82 628.651L1102.25 629.588M1096.58 625.895H1138.95M1132.7 622.339L1138.95 625.895M1138.95 625.895L1145.43 629.588M1059.08 629.588L1064.13 633.425M1059.08 629.588H1102.25M1059.08 629.588H1015.9M1102.25 629.588L1108.15 633.425M1102.25 629.588H1145.43M1145.43 629.588L1152.18 633.425M1064.13 633.425H1108.15M1064.13 633.425H1020.11M1114.29 637.415L1110.43 634.903L1109.67 634.407L1108.15 633.425M1114.29 637.415L1120.67 641.567M1114.29 637.415H1159.19M1108.15 633.425H1152.18M1020.11 633.425H976.089M1020.11 633.425L1015.9 629.588M1152.18 633.425L1159.19 637.415M1015.9 629.588H972.717M1120.67 641.567L1127.32 645.89M1120.67 641.567H1166.48M1159.19 637.415L1166.48 641.567M1166.48 641.567L1174.08 645.89M1080.56 645.89L1083.5 648.12L1084.25 648.685L1086.5 650.398M1080.56 645.89H1127.32M1080.56 645.89H1033.8M1127.32 645.89L1134.25 650.398M1127.32 645.89H1174.08M1174.08 645.89L1182 650.398M1086.5 650.398H1134.25M1086.5 650.398H1038.75M1141.48 655.1L1134.25 650.398M1141.48 655.1L1149.03 660.01M1141.48 655.1H1190.27M1134.25 650.398H1182M1038.75 650.398H991.001M1038.75 650.398L1037.49 649.253L1033.8 645.89M1182 650.398L1190.27 655.1M1033.8 645.89H987.042M1149.03 660.01L1156.92 665.142M1149.03 660.01H1198.89M1190.27 655.1L1198.89 660.01M1198.89 660.01L1207.91 665.142M1105.93 665.142L1113.01 670.511M1105.93 665.142H1156.92M1105.93 665.142H1054.95M1156.92 665.142L1165.18 670.511M1156.92 665.142H1207.91M1207.91 665.142L1217.35 670.511M1113.01 670.511H1165.18M1113.01 670.511H1060.84M1173.83 676.135L1165.18 670.511M1173.83 676.135L1182.89 682.031M1173.83 676.135H1227.23M1165.18 670.511H1217.35M1060.84 670.511H1008.67M1060.84 670.511L1054.95 665.142M1217.35 670.511L1227.23 676.135M1054.95 665.142H1003.96M1182.89 682.031L1192.41 688.221M1182.89 682.031H1237.59M1227.23 676.135L1237.59 682.031M1237.59 682.031L1248.47 688.221M1136.35 688.221L1144.93 694.726M1136.35 688.221H1192.41M1136.35 688.221H1080.29M1192.41 688.221L1202.41 694.726M1192.41 688.221H1248.47M1248.47 688.221L1259.9 694.726M1144.93 694.726H1202.41M1144.93 694.726H1087.44M1212.94 701.572L1202.41 694.726M1212.94 701.572L1224.03 708.785M1212.94 701.572H1271.93M1202.41 694.726H1259.9M1087.44 694.726H1029.95M1087.44 694.726L1080.29 688.221M1259.9 694.726L1271.93 701.572M1080.29 688.221H1024.24M1224.03 708.785L1235.74 716.397M1224.03 708.785H1284.61M1271.93 701.572L1284.61 708.785M1284.61 708.785L1297.98 716.397M1173.49 716.397L1184.09 724.44M1173.49 716.397H1235.74M1173.49 716.397H1111.24M1235.74 716.397L1248.1 724.44M1235.74 716.397H1297.98M1297.98 716.397L1312.12 724.44M1184.09 724.44H1248.1M1184.09 724.44H1120.07M1261.19 732.954L1248.1 724.44M1261.19 732.954L1275.07 741.98M1261.19 732.954H1327.08M1248.1 724.44H1312.12M1120.07 724.44H1056.06M1120.07 724.44L1111.24 716.397M1312.12 724.44L1327.08 732.954M1111.24 716.397H1048.99M1275.07 741.98L1289.81 751.566M1275.07 741.98H1342.94M1327.08 732.954L1342.94 741.98M1342.94 741.98L1359.79 751.566M1219.84 751.566L1233.28 761.766M1219.84 751.566H1289.81M1219.84 751.566H1149.87M1289.81 751.566L1305.5 761.766M1289.81 751.566H1359.79M1359.79 751.566L1377.71 761.766M1233.28 761.766H1305.5M1233.28 761.766H1161.07M1322.22 772.641L1305.5 761.766M1322.22 772.641L1340.08 784.259M1322.22 772.641H1396.82M1305.5 761.766H1377.71M1161.07 761.766H1088.85M1161.07 761.766L1149.87 751.566M1377.71 761.766L1396.82 772.641M1149.87 751.566H1079.89M1340.08 784.259L1359.21 796.701M1340.08 784.259H1417.24M1396.82 772.641L1417.24 784.259M1417.24 784.259L1439.1 796.701M1279.33 796.701L1296.93 810.057M1279.33 796.701H1359.21M1279.33 796.701H1199.44M1359.21 796.701L1379.75 810.057M1359.21 796.701H1439.1M1439.1 796.701L1462.57 810.057M1296.93 810.057H1379.75M1296.93 810.057H1214.11M1401.85 824.431L1379.75 810.057M1401.85 824.431L1425.7 839.944M1401.85 824.431H1487.83M1379.75 810.057H1462.57M1214.11 810.057H1131.28M1214.11 810.057L1199.44 796.701M1462.57 810.057L1487.83 824.431M1462.57 810.057H1545.39M1199.44 796.701H1119.55M1425.7 839.944L1451.53 856.738M1425.7 839.944H1515.09M1487.83 824.431L1515.09 839.944M1545.39 810.057H1599.57M1515.09 839.944L1544.6 856.738M1515.09 839.944H1599.57M1358.45 856.738L1382.49 874.978M1358.45 856.738H1451.53M1358.45 856.738H1265.38M1451.53 856.738L1479.57 874.978M1451.53 856.738H1544.6M1544.6 856.738L1576.66 874.978M1544.6 856.738H1599.57M1382.49 874.978H1479.57M1382.49 874.978H1285.41M1510.14 894.858L1479.57 874.978M1510.14 894.858L1543.59 916.612M1510.14 894.858H1599.57M1479.57 874.978H1576.66M1285.41 874.978H1188.33M1285.41 874.978L1265.38 856.738M1576.66 874.978H1599.57M1576.66 874.978L1599.57 888.018M1265.38 856.738H1172.3M1543.59 916.612L1580.35 940.516M1543.59 916.612H1599.57M1468.87 940.516L1503.65 966.906M1468.87 940.516H1580.35M1468.87 940.516H1357.39M1580.35 940.516L1599.57 953.018M1580.35 940.516H1599.57M1503.65 966.906H1386.37M1503.65 966.906L1599.57 966.906M1386.37 966.906H1269.1M1386.37 966.906L1357.39 940.516M1357.39 940.516H1245.91M880.215 615.605L880.394 616.011L880.573 616.42L880.754 616.83L880.935 617.243L881.484 618.491L881.668 618.911M880.215 615.605H920.324M880.215 615.605H840.108M918.221 612.414L916.691 610.094L916.191 609.333M918.221 612.414L919.527 614.395L920.324 615.605M918.221 612.414H957.628M916.191 609.333H954.921M916.191 609.333L914.713 607.091L914.229 606.357M876.152 606.357L875.993 605.991L875.358 604.546L874.888 603.479M876.152 606.357H914.229M876.152 606.357H838.076M920.324 615.605L920.591 616.011L920.861 616.42L921.131 616.83L921.403 617.243L922.502 618.911M920.324 615.605H960.431M957.628 612.414L955.589 610.094L954.921 609.333M957.628 612.414L960.431 615.605M954.921 609.333L953.602 607.832L952.627 606.723L952.305 606.357M914.229 606.357L913.989 605.991L913.511 605.266L913.036 604.546L912.801 604.189L912.332 603.479M914.229 606.357H952.305M960.431 615.605L962.6 618.073L963.335 618.911M990.382 606.357L988.001 604.189L987.221 603.479M990.382 606.357H952.305M952.305 606.357L950.088 603.833L949.776 603.479M881.668 618.911H922.502M881.668 618.911H840.834M924.76 622.339L922.502 618.911M924.76 622.339L927.104 625.895M924.76 622.339H966.347M922.502 618.911H963.335M840.834 618.911H800M840.834 618.911L840.108 615.605M963.335 618.911L966.347 622.339M840.108 615.605H800M927.104 625.895L927.705 626.805L928.615 628.187L929.538 629.588M927.104 625.895H969.473M966.347 622.339L966.732 622.775L969.473 625.895M969.473 625.895L969.871 626.349L970.272 626.805L970.675 627.264L972.717 629.588M886.359 629.588L888.044 633.425M886.359 629.588H929.538M886.359 629.588H843.179M929.538 629.588L932.066 633.425M929.538 629.588H972.717M972.717 629.588L975.233 632.451L975.66 632.937L976.089 633.425M888.044 633.425H932.066M888.044 633.425H844.022M934.696 637.415L935.031 637.925L935.37 638.437L935.709 638.952L937.432 641.567M934.696 637.415L933.368 635.4L933.04 634.903L932.714 634.407L932.066 633.425M934.696 637.415H979.594M932.066 633.425H976.089M844.022 633.425H800M844.022 633.425L843.179 629.588M976.089 633.425L979.594 637.415M843.179 629.588H800M937.432 641.567L939.919 645.34L940.281 645.89M937.432 641.567H983.242M979.594 637.415L980.493 638.437L983.242 641.567M983.242 641.567L984.649 643.167L987.042 645.89M893.521 645.89L894.501 648.12L894.748 648.685L895.501 650.398M893.521 645.89H940.281M893.521 645.89H846.761M940.281 645.89L943.251 650.398M940.281 645.89H987.042M987.042 645.89L991.001 650.398M895.501 650.398H943.251M895.501 650.398H847.75M946.35 655.1L943.251 650.398M946.35 655.1L949.585 660.01M946.35 655.1H995.133M943.251 650.398H991.001M847.75 650.398H800M847.75 650.398L847.499 649.253L847.004 647L846.761 645.89M991.001 650.398L995.133 655.1M846.761 645.89H800M949.585 660.01L952.107 663.837L952.968 665.142M949.585 660.01H999.448M995.133 655.1L999.448 660.01M999.448 660.01L1001.68 662.547L1003.96 665.142M901.978 665.142L904.337 670.511M901.978 665.142H952.968M901.978 665.142H850.989M952.968 665.142L956.506 670.511M952.968 665.142H1003.96M1003.96 665.142L1008.67 670.511M904.337 670.511H956.506M904.337 670.511H852.169M960.212 676.135L959.268 674.704L956.506 670.511M960.212 676.135L964.097 682.031M960.212 676.135H1013.62M956.506 670.511H1008.67M852.169 670.511H800M852.169 670.511L850.989 665.142M1008.67 670.511L1013.62 676.135M850.989 665.142H800M964.097 682.031L968.176 688.221M964.097 682.031H1018.8M1013.62 676.135L1018.8 682.031M1018.8 682.031L1024.24 688.221M912.118 688.221L914.976 694.726M912.118 688.221H968.176M912.118 688.221H856.059M968.176 688.221L972.463 694.726M968.176 688.221H1024.24M1024.24 688.221L1029.95 694.726M914.976 694.726H972.463M914.976 694.726H857.487M976.975 701.572L972.463 694.726M976.975 701.572L981.728 708.785M976.975 701.572H1035.97M972.463 694.726H1029.95M857.487 694.726H800M857.487 694.726L856.233 689.017L856.059 688.221M1029.95 694.726L1035.97 701.572M856.059 688.221H800M981.728 708.785L986.744 716.397M981.728 708.785H1042.3M1035.97 701.572L1040.69 706.946L1042.3 708.785M1042.3 708.785L1048.99 716.397M924.495 716.397L928.029 724.44M924.495 716.397H986.744M924.495 716.397H862.248M986.744 716.397L992.044 724.44M986.744 716.397H1048.99M1048.99 716.397L1056.06 724.44M928.029 724.44H992.044M928.029 724.44H864.015M997.654 732.954L992.044 724.44M997.654 732.954L1003.6 741.98M997.654 732.954H1063.54M992.044 724.44H1056.06M864.015 724.44H800M864.015 724.44L862.248 716.397M1056.06 724.44L1063.54 732.954M862.248 716.397H800M1003.6 741.98L1009.92 751.566M1003.6 741.98H1071.47M1063.54 732.954L1071.47 741.98M1071.47 741.98L1079.89 751.566M939.946 751.566L944.427 761.766M939.946 751.566H1009.92M939.946 751.566H869.973M1009.92 751.566L1016.64 761.766M1009.92 751.566H1079.89M1079.89 751.566L1088.85 761.766M944.427 761.766H1016.64M944.427 761.766H872.214M1023.81 772.641L1016.64 761.766M1023.81 772.641L1031.46 784.259M1023.81 772.641H1098.41M1016.64 761.766H1088.85M872.214 761.766H800M872.214 761.766L869.973 751.566M1088.85 761.766L1098.41 772.641M869.973 751.566H800M1031.46 784.259L1039.66 796.701M1031.46 784.259H1108.62M1098.41 772.641L1108.62 784.259M1108.62 784.259L1119.55 796.701M959.775 796.701L965.643 810.057M959.775 796.701H1039.66M959.775 796.701H879.888M1039.66 796.701L1048.46 810.057M1039.66 796.701H1119.55M1119.55 796.701L1131.28 810.057M965.643 810.057H1048.46M965.643 810.057H882.821M1057.94 824.431L1048.46 810.057M1057.94 824.431L1068.16 839.944M1057.94 824.431H1143.91M1048.46 810.057H1131.28M882.821 810.057H800M882.821 810.057L879.888 796.701M1131.28 810.057L1143.91 824.431M879.888 796.701H800M1068.16 839.944L1079.23 856.738M1068.16 839.944H1157.55M1143.91 824.431L1157.55 839.944M1157.55 839.944L1172.3 856.738M986.151 856.738L994.164 874.978M986.151 856.738H1079.23M986.151 856.738H893.076M1079.23 856.738L1091.25 874.978M1079.23 856.738H1172.3M1172.3 856.738L1188.33 874.978M994.164 874.978H1091.25M994.164 874.978H897.082M1104.35 894.858L1091.25 874.978M1104.35 894.858L1118.68 916.612M1104.35 894.858H1205.8M1091.25 874.978H1188.33M897.082 874.978H800M897.082 874.978L893.076 856.738M1188.33 874.978L1205.8 894.858M893.076 856.738H800M1118.68 916.612L1134.43 940.516M1118.68 916.612H1224.91M1205.8 894.858L1224.91 916.612M1224.91 916.612L1245.91 940.516M1022.96 940.516L1034.55 966.906M1022.96 940.516H1134.43M1022.96 940.516H911.478M1134.43 940.516L1151.82 966.906M1134.43 940.516H1245.91M1245.91 940.516L1269.1 966.906M1151.82 966.906H1034.55M1151.82 966.906H1269.1M1034.55 966.906H917.275M917.275 966.906H800M917.275 966.906L911.478 940.516M911.478 940.516H800M719.785 615.605L719.606 616.011L719.427 616.42L719.246 616.83L719.065 617.243L718.701 618.073L718.516 618.491L718.332 618.911M719.785 615.605H759.892M719.785 615.605H679.677M760.593 612.414L761.27 609.333M760.593 612.414L759.892 615.605M760.593 612.414H800M761.27 609.333L761.353 608.956L761.436 608.58L761.517 608.205L761.924 606.357M761.27 609.333H800M723.848 606.357L724.008 605.991L724.642 604.546L725.112 603.479M723.848 606.357H761.924M723.848 606.357H685.772M759.892 615.605L759.803 616.011L759.713 616.42L759.623 616.83L759.166 618.911M759.892 615.605H800M800 612.414V609.333M800 612.414V615.605M800 609.333V606.357M761.924 606.357H800M761.924 606.357L762.163 605.266L762.243 604.905L762.556 603.479M800 615.605V618.911M838.076 606.357L837.837 605.266L837.757 604.905L837.679 604.546L837.6 604.189L837.522 603.833L837.444 603.479M838.076 606.357H800M800 606.357V603.479M718.332 618.911H759.166M718.332 618.911H677.499M758.413 622.339L758.317 622.775L758.221 623.215L757.632 625.895M758.413 622.339L759.166 618.911M758.413 622.339H800M759.166 618.911H800M677.499 618.911H636.665M677.499 618.911L678.05 618.073L678.325 617.657L678.597 617.243L678.869 616.83L679.139 616.42L679.409 616.011L679.677 615.605M800 618.911V622.339M679.677 615.605H639.569M757.632 625.895L756.821 629.588M757.632 625.895H800M800 622.339V625.895M800 625.895V629.588M713.642 629.588L711.956 633.425M713.642 629.588H756.821M713.642 629.588H670.462M756.821 629.588L755.978 633.425M756.821 629.588H800M800 629.588V633.425M711.956 633.425H755.978M711.956 633.425H667.934M755.102 637.415L755.978 633.425M755.102 637.415L754.19 641.567M755.102 637.415H800M755.978 633.425H800M667.934 633.425H623.912M667.934 633.425L670.462 629.588M800 633.425V637.415M670.462 629.588H627.283M754.19 641.567L753.838 643.167L753.481 644.793L753.239 645.89M754.19 641.567H800M800 637.415V641.567M800 641.567V645.89M706.48 645.89L705.499 648.12L705.252 648.685L704.499 650.398M706.48 645.89H753.239M706.48 645.89H659.719M753.239 645.89L752.996 647L752.501 649.253L752.25 650.398M753.239 645.89H800M800 645.89V650.398M704.499 650.398H752.25M704.499 650.398H656.749M751.217 655.1L751.348 654.501L752.25 650.398M751.217 655.1L750.139 660.01M751.217 655.1H800M752.25 650.398H800M656.749 650.398H608.999M656.749 650.398L659.719 645.89M800 650.398V655.1M659.719 645.89H612.958M750.139 660.01L749.011 665.142M750.139 660.01H800M800 655.1V660.01M800 660.01V665.142M698.022 665.142L695.663 670.511M698.022 665.142H749.011M698.022 665.142H647.032M749.011 665.142L747.832 670.511M749.011 665.142H800M800 665.142V670.511M695.663 670.511H747.832M695.663 670.511H643.494M746.596 676.135L747.832 670.511M746.596 676.135L745.301 682.031M746.596 676.135H800M747.832 670.511H800M643.494 670.511H591.326M643.494 670.511L647.032 665.142M800 670.511V676.135M647.032 665.142H596.043M745.301 682.031L743.941 688.221M745.301 682.031H800M800 676.135V682.031M800 682.031V688.221M687.882 688.221L685.025 694.726M687.882 688.221H743.941M687.882 688.221H631.824M743.941 688.221L742.513 694.726M743.941 688.221H800M800 688.221V694.726M685.025 694.726H742.513M685.025 694.726H627.537M741.009 701.572L742.513 694.726M741.009 701.572L739.424 708.785M741.009 701.572H800M742.513 694.726H800M627.537 694.726H570.049M627.537 694.726L631.824 688.221M800 694.726V701.572M631.824 688.221H575.765M739.424 708.785L737.752 716.397M739.424 708.785H800M800 701.572V708.785M800 708.785V716.397M675.505 716.397L671.971 724.44M675.505 716.397H737.752M675.505 716.397H613.256M737.752 716.397L735.985 724.44M737.752 716.397H800M800 716.397V724.44M671.971 724.44H735.985M671.971 724.44H607.956M734.116 732.954L735.985 724.44M734.116 732.954L732.132 741.98M734.116 732.954H800M735.985 724.44H800M607.956 724.44H543.941M607.956 724.44L613.256 716.397M800 724.44V732.954M613.256 716.397H551.008M732.132 741.98L730.027 751.566M732.132 741.98H800M800 732.954V741.98M800 741.98V751.566M660.054 751.566L655.573 761.766M660.054 751.566H730.027M660.054 751.566H590.081M730.027 751.566L727.786 761.766M730.027 751.566H800M800 751.566V761.766M655.573 761.766H727.786M655.573 761.766H583.359M725.398 772.641L727.786 761.766M725.398 772.641L722.846 784.259M725.398 772.641H800M727.786 761.766H800M583.359 761.766H511.146M583.359 761.766L590.081 751.566M800 761.766V772.641M590.081 751.566H520.107M722.846 784.259L720.112 796.701M722.846 784.259H800M800 772.641V784.259M800 784.259V796.701M640.225 796.701L634.358 810.057M640.225 796.701H720.112M640.225 796.701H560.337M720.112 796.701L717.179 810.057M720.112 796.701H800M800 796.701V810.057M634.358 810.057H717.179M634.358 810.057H551.536M714.021 824.431L717.179 810.057M714.021 824.431L710.614 839.944M714.021 824.431H800M717.179 810.057H800M551.536 810.057H468.715M551.536 810.057L560.337 796.701M800 810.057V824.431M560.337 796.701H480.45M710.614 839.944L706.924 856.738M710.614 839.944H800M800 824.431V839.944M800 839.944V856.738M613.85 856.738L605.836 874.978M613.85 856.738H706.924M613.85 856.738H520.774M706.924 856.738L702.918 874.978M706.924 856.738H800M800 856.738V874.978M605.836 874.978H702.918M605.836 874.978H508.754M698.551 894.858L702.918 874.978M698.551 894.858L693.773 916.612M698.551 894.858H800M702.918 874.978H800M508.754 874.978C508.754 874.978 449.585 874.978 411.672 874.978M508.754 874.978L520.774 856.738M800 874.978V894.858M520.774 856.738H427.699M693.773 916.612L688.522 940.516M693.773 916.612H800M800 894.858V916.612M800 916.612V940.516M577.044 940.516L565.451 966.906M577.044 940.516H688.522M577.044 940.516H465.566M688.522 940.516L682.725 966.906M688.522 940.516H800M800 940.516V966.906M682.725 966.906H565.451M682.725 966.906H800M565.451 966.906H448.175M448.175 966.906H330.9M448.175 966.906L465.566 940.516M465.566 940.516H354.088M559.354 615.605L557.195 617.243L554.997 618.911M559.354 615.605H599.461M559.354 615.605H519.246M602.965 612.414L606.349 609.333M602.965 612.414L599.461 615.605M602.965 612.414H642.372M606.349 609.333H645.079M606.349 609.333L608.811 607.091L609.618 606.357M571.542 606.357H609.618M571.542 606.357L572.98 605.266L575.335 603.479M571.542 606.357H533.466M599.461 615.605L595.831 618.911M599.461 615.605H639.569M642.372 612.414L645.079 609.333M642.372 612.414L639.569 615.605M645.079 609.333L646.399 607.832L647.373 606.723L647.695 606.357M609.618 606.357H647.695M609.618 606.357L611.999 604.189L612.779 603.479M639.569 615.605L637.4 618.073L636.665 618.911M685.772 606.357L686.011 605.991L686.49 605.266L687.199 604.189L687.668 603.479M685.772 606.357H647.695M647.695 606.357L648.015 605.991L648.653 605.266L650.223 603.479M554.997 618.911H595.831M554.997 618.911H514.162M592.065 622.339L592.544 621.903L593.02 621.469L594.902 619.755L595.831 618.911M592.065 622.339L589.149 624.993L588.159 625.895M592.065 622.339H633.653M595.831 618.911H636.665M514.162 618.911H473.329M514.162 618.911L517.992 616.42L519.246 615.605M636.665 618.911L633.653 622.339M519.246 615.605H479.138M588.159 625.895L587.661 626.349L587.16 626.805L585.643 628.187L585.132 628.651L584.104 629.588M588.159 625.895H630.527M633.653 622.339L633.268 622.775L630.527 625.895M630.527 625.895L630.129 626.349L629.728 626.805L629.325 627.264L627.283 629.588M540.925 629.588L535.867 633.425M540.925 629.588H584.104M540.925 629.588H497.745M584.104 629.588L579.889 633.425M584.104 629.588H627.283M627.283 629.588L623.912 633.425M535.867 633.425H579.889M535.867 633.425H491.845M575.508 637.415L579.889 633.425M575.508 637.415L570.948 641.567M575.508 637.415H620.406M579.889 633.425H623.912M491.845 633.425H447.823M491.845 633.425L497.745 629.588M623.912 633.425L620.406 637.415M497.745 629.588H454.565M570.948 641.567L566.198 645.89M570.948 641.567H616.758M620.406 637.415L619.507 638.437L616.758 641.567M616.758 641.567L615.351 643.167L613.923 644.793L612.958 645.89M519.438 645.89L516.499 648.12L513.498 650.398M519.438 645.89H566.198M519.438 645.89H472.677M566.198 645.89L561.248 650.398M566.198 645.89H612.958M612.958 645.89L608.999 650.398M513.498 650.398H561.248M513.498 650.398H465.748M556.084 655.1L561.248 650.398M556.084 655.1L550.691 660.01M556.084 655.1H604.867M561.248 650.398H608.999M465.748 650.398H417.997M465.748 650.398L472.677 645.89M608.999 650.398L604.867 655.1M472.677 645.89H425.917M550.691 660.01L549.305 661.271L545.055 665.142M550.691 660.01H600.552M604.867 655.1L600.552 660.01M600.552 660.01L600 660.639L598.324 662.547L596.043 665.142M494.066 665.142L486.989 670.511M494.066 665.142H545.055M494.066 665.142H443.076M545.055 665.142L539.157 670.511M545.055 665.142H596.043M596.043 665.142L591.326 670.511M486.989 670.511H539.157M486.989 670.511H434.82M532.981 676.135L536.875 672.59L539.157 670.511M532.981 676.135L526.504 682.031M532.981 676.135H586.384M539.157 670.511H591.326M434.82 670.511H382.651M434.82 670.511L443.076 665.142M591.326 670.511L586.384 676.135M443.076 665.142H392.087M526.504 682.031L519.706 688.221M526.504 682.031H581.204M586.384 676.135L581.204 682.031M581.204 682.031L575.765 688.221M463.647 688.221L455.073 694.726M463.647 688.221H519.706M463.647 688.221H407.589M519.706 688.221L512.562 694.726M519.706 688.221H575.765M575.765 688.221L570.049 694.726M455.073 694.726H512.562M455.073 694.726H397.586M505.043 701.572L512.562 694.726M505.043 701.572L497.121 708.785M505.043 701.572H564.035M512.562 694.726H570.049M397.586 694.726H340.099M397.586 694.726L407.589 688.221M570.049 694.726L564.035 701.572M407.589 688.221H351.53M497.121 708.785L488.761 716.397M497.121 708.785H557.696M564.035 701.572L557.696 708.785M557.696 708.785L551.008 716.397M426.513 716.397L415.912 724.44M426.513 716.397H488.761M426.513 716.397H364.265M488.761 716.397L479.927 724.44M488.761 716.397H551.008M551.008 716.397L543.941 724.44M415.912 724.44H479.927M415.912 724.44H351.897M470.576 732.954L479.927 724.44M470.576 732.954L460.663 741.98M470.576 732.954H536.461M479.927 724.44H543.941M351.897 724.44H287.882M351.897 724.44L364.265 716.397M543.941 724.44L536.461 732.954M364.265 716.397H302.017M460.663 741.98L450.134 751.566M460.663 741.98H528.53M536.461 732.954L528.53 741.98M528.53 741.98L520.107 751.566M380.161 751.566L366.718 761.766M380.161 751.566H450.134M380.161 751.566H310.188M450.134 751.566L438.932 761.766M450.134 751.566H520.107M520.107 751.566L511.146 761.766M366.718 761.766H438.932M366.718 761.766H294.505M426.988 772.641L438.932 761.766M426.988 772.641L414.227 784.259M426.988 772.641H501.591M438.932 761.766H511.146M294.505 761.766H222.291M294.505 761.766L310.188 751.566M511.146 761.766L501.591 772.641M310.188 751.566H240.215M414.227 784.259L400.563 796.701M414.227 784.259H491.382M501.591 772.641L491.382 784.259M491.382 784.259L480.45 796.701M320.675 796.701L303.073 810.057M320.675 796.701H400.563M320.675 796.701H240.787M400.563 796.701L385.894 810.057M400.563 796.701H480.45M480.45 796.701L468.715 810.057M303.073 810.057H385.894M303.073 810.057H220.251M370.107 824.431L385.894 810.057M370.107 824.431L353.068 839.944M370.107 824.431H456.085M385.894 810.057H468.715M220.251 810.057H137.43M220.251 810.057L240.787 796.701M468.715 810.057L456.085 824.431M240.787 796.701H160.899M353.068 839.944L334.623 856.738M353.068 839.944H442.454M456.085 824.431L442.454 839.944M442.454 839.944L427.699 856.738M241.548 856.738L217.509 874.978M241.548 856.738H334.623M241.548 856.738H148.473M334.623 856.738L314.591 874.978M334.623 856.738H427.699M427.699 856.738C427.699 856.738 417.931 867.855 411.672 874.978M217.509 874.978H314.591M217.509 874.978H120.427M292.756 894.858L314.591 874.978M292.756 894.858L268.864 916.612M292.756 894.858H394.204M314.591 874.978C314.591 874.978 373.76 874.978 411.672 874.978M120.427 874.978H23.3449M120.427 874.978L148.473 856.738M411.672 874.978C404.851 882.742 394.204 894.858 394.204 894.858M148.473 856.738H55.3977M268.864 916.612L242.61 940.516M268.864 916.612H375.091M394.204 894.858L375.091 916.612M375.091 916.612L354.088 940.516M131.132 940.516L96.3506 966.906M131.132 940.516H242.61M131.132 940.516H19.6536M242.61 940.516L213.626 966.906M242.61 940.516H354.088M354.088 940.516L330.9 966.906M213.626 966.906H96.3506M213.626 966.906H330.9M96.3506 966.906L0.430606 966.906M19.6536 940.516L0.430606 953.018M19.6536 940.516H0.430606M398.923 615.605L391.661 618.911M398.923 615.605H439.03M398.923 615.605H358.815M445.338 612.414L451.429 609.333M445.338 612.414L439.03 615.605M445.338 612.414H484.745M451.429 609.333H490.159M451.429 609.333L457.314 606.357M419.237 606.357H457.314M419.237 606.357L421.633 605.266L425.559 603.479M419.237 606.357H381.161M439.03 615.605L432.495 618.911M439.03 615.605H479.138M484.745 612.414L490.159 609.333M484.745 612.414L479.138 615.605M490.159 609.333L494.099 607.091L495.39 606.357M457.314 606.357L458.035 605.991L463.003 603.479M457.314 606.357H495.39M479.138 615.605L473.329 618.911M533.466 606.357L537.891 603.479M533.466 606.357H495.39M495.39 606.357L497.306 605.266L500.447 603.479M391.661 618.911H432.495M391.661 618.911H350.827M425.718 622.339L432.495 618.911M425.718 622.339L418.687 625.895M425.718 622.339H467.305M432.495 618.911H473.329M350.827 618.911H309.993M350.827 618.911L358.815 615.605M473.329 618.911L467.305 622.339M358.815 615.605H318.708M418.687 625.895L416.887 626.805L411.386 629.588M418.687 625.895H461.055M467.305 622.339L461.055 625.895M461.055 625.895L454.565 629.588M368.207 629.588L367.171 630.06L359.779 633.425M368.207 629.588H411.386M368.207 629.588H325.027M411.386 629.588L403.801 633.425M411.386 629.588H454.565M454.565 629.588L453.737 630.06L447.823 633.425M359.779 633.425H403.801M359.779 633.425H315.757M395.913 637.415L403.801 633.425M395.913 637.415L387.705 641.567M395.913 637.415H440.812M403.801 633.425H447.823M315.757 633.425H271.735M315.757 633.425L325.027 629.588M447.823 633.425L440.812 637.415M325.027 629.588H281.848M387.705 641.567L379.157 645.89M387.705 641.567H433.516M440.812 637.415L433.516 641.567M433.516 641.567L425.917 645.89M332.397 645.89L322.496 650.398M332.397 645.89H379.157M332.397 645.89H285.636M379.157 645.89L370.246 650.398M379.157 645.89H425.917M425.917 645.89L417.997 650.398M322.496 650.398H370.246M322.496 650.398H274.745M360.951 655.1L370.246 650.398M360.951 655.1L351.243 660.01M360.951 655.1H409.734M370.246 650.398H417.997M274.745 650.398H226.995M274.745 650.398L285.636 645.89M417.997 650.398L409.734 655.1M285.636 645.89H238.876M351.243 660.01L341.098 665.142M351.243 660.01H401.106M409.734 655.1L401.106 660.01M401.106 660.01L392.087 665.142M290.109 665.142L278.314 670.511M290.109 665.142H341.098M290.109 665.142H239.12M341.098 665.142L330.483 670.511M341.098 665.142H392.087M392.087 665.142L382.651 670.511M278.314 670.511H330.483M278.314 670.511H226.146M319.365 676.135L330.483 670.511M319.365 676.135L307.708 682.031M319.365 676.135H372.768M330.483 670.511H382.651M226.146 670.511H173.977M226.146 670.511L239.12 665.142M382.651 670.511L372.768 676.135M239.12 665.142H188.13M307.708 682.031L295.471 688.221M307.708 682.031H362.407M372.768 676.135L362.407 682.031M362.407 682.031L351.53 688.221M239.412 688.221L225.123 694.726M239.412 688.221H295.471M239.412 688.221H183.354M295.471 688.221L282.61 694.726M295.471 688.221H351.53M351.53 688.221L340.099 694.726M225.123 694.726H282.61M225.123 694.726H167.635M269.077 701.572L282.61 694.726M269.077 701.572L254.817 708.785M269.077 701.572H328.068M282.61 694.726H340.099M167.635 694.726H110.147M167.635 694.726L183.354 688.221M340.099 694.726L328.068 701.572M183.354 688.221H127.295M254.817 708.785L239.769 716.397M254.817 708.785H315.393M328.068 701.572L315.393 708.785M315.393 708.785L302.017 716.397M177.521 716.397L159.853 724.44M177.521 716.397H239.769M177.521 716.397H115.274M239.769 716.397L223.868 724.44M239.769 716.397H302.017M302.017 716.397L287.882 724.44M159.853 724.44H223.868M159.853 724.44H95.8384M207.037 732.954L223.868 724.44M207.037 732.954L189.193 741.98M207.037 732.954H272.921M223.868 724.44H287.882M95.8384 724.44H31.8237M95.8384 724.44L115.274 716.397M287.882 724.44L272.921 732.954M115.274 716.397H53.0256M189.193 741.98L170.242 751.566M189.193 741.98H257.061M272.921 732.954L257.061 741.98M257.061 741.98L240.215 751.566M100.269 751.566L77.8639 761.766M100.269 751.566H170.242M100.269 751.566H30.2954M170.242 751.566L150.078 761.766M170.242 751.566H240.215M240.215 751.566L222.291 761.766M77.8639 761.766H150.078M77.8639 761.766H5.65029M128.578 772.641L150.078 761.766M128.578 772.641L105.609 784.259M128.578 772.641H203.181M150.078 761.766H222.291M5.65029 761.766L30.2954 751.566M5.65029 761.766H0.430606M5.65029 761.766L0.430606 763.926M222.291 761.766L203.181 772.641M30.2954 751.566H0.430606M105.609 784.259L81.0122 796.701M105.609 784.259H182.763M203.181 772.641L182.763 784.259M182.763 784.259L160.899 796.701M1.1244 796.701H81.0122M1.1244 796.701H0.430606M1.1244 796.701L0.430606 797.017M81.0122 796.701L54.6081 810.057M81.0122 796.701H160.899M160.899 796.701L137.43 810.057M26.1917 824.431L54.6081 810.057M26.1917 824.431H112.17M26.1917 824.431H0.430606M26.1917 824.431L0.430606 837.462M54.6081 810.057H137.43M54.6081 810.057H0.430606M137.43 810.057L112.17 824.431M112.17 824.431L84.9093 839.944M84.9093 839.944L55.3977 856.738M84.9093 839.944H0.430606M55.3977 856.738L23.3449 874.978M55.3977 856.738H0.430606M23.3449 874.978H0.430606M23.3449 874.978L0.430606 888.018M238.492 615.605L228.325 618.911M238.492 615.605H278.6M238.492 615.605H198.384M287.71 612.414L296.508 609.333M287.71 612.414L278.6 615.605M287.71 612.414H327.117M296.508 609.333H335.238M296.508 609.333L305.008 606.357M266.932 606.357H305.008M266.932 606.357L275.782 603.479M266.932 606.357H228.856M278.6 615.605L269.159 618.911M278.6 615.605H318.708M327.117 612.414L335.238 609.333M327.117 612.414L318.708 615.605M335.238 609.333L343.084 606.357M305.008 606.357L306.05 605.991L313.226 603.479M305.008 606.357H343.084M318.708 615.605L309.993 618.911M381.161 606.357L388.114 603.479M381.161 606.357H343.084M343.084 606.357L344.046 605.991L350.67 603.479M228.325 618.911H269.159M228.325 618.911H187.492M259.37 622.339L269.159 618.911M259.37 622.339L249.214 625.895M259.37 622.339H300.958M269.159 618.911H309.993M187.492 618.911H146.658M187.492 618.911L198.384 615.605M309.993 618.911L300.958 622.339M198.384 615.605H158.276M249.214 625.895L238.669 629.588M249.214 625.895H291.582M300.958 622.339L299.804 622.775L291.582 625.895M291.582 625.895L281.848 629.588M195.49 629.588L183.69 633.425M195.49 629.588H238.669M195.49 629.588H152.311M238.669 629.588L227.712 633.425M238.669 629.588H281.848M281.848 629.588L271.735 633.425M183.69 633.425H227.712M183.69 633.425H139.668M216.319 637.415L227.712 633.425M216.319 637.415L204.463 641.567M216.319 637.415H261.218M227.712 633.425H271.735M139.668 633.425H95.646M139.668 633.425L152.311 629.588M271.735 633.425L261.218 637.415M152.311 629.588H109.131M204.463 641.567L192.116 645.89M204.463 641.567H250.274M261.218 637.415L250.274 641.567M250.274 641.567L238.876 645.89M145.355 645.89L131.494 650.398M145.355 645.89H192.116M145.355 645.89H98.5944M192.116 645.89L179.245 650.398M192.116 645.89H238.876M238.876 645.89L226.995 650.398M131.494 650.398H179.245M131.494 650.398H83.7441M165.817 655.1L179.245 650.398M165.817 655.1L151.797 660.01M165.817 655.1H214.601M179.245 650.398H226.995M83.7441 650.398H35.994M83.7441 650.398L98.5944 645.89M226.995 650.398L214.601 655.1M98.5944 645.89H51.8346M151.797 660.01L137.141 665.142M151.797 660.01H201.658M214.601 655.1L201.658 660.01M201.658 660.01L188.13 665.142M86.1519 665.142L69.64 670.511M86.1519 665.142H137.141M86.1519 665.142H35.1636M137.141 665.142L121.809 670.511M137.141 665.142H188.13M188.13 665.142L173.977 670.511M69.64 670.511H121.809M105.749 676.135L121.809 670.511M105.749 676.135L88.9113 682.031M105.749 676.135H159.153M121.809 670.511H173.977M173.977 670.511L159.153 676.135M35.1636 665.142H0.430606M88.9113 682.031L71.2358 688.221M88.9113 682.031H143.61M159.153 676.135L143.61 682.031M143.61 682.031L127.295 688.221M15.1768 688.221H71.2358M15.1768 688.221H0.430606M15.1768 688.221L0.430606 693.016M71.2358 688.221L52.6591 694.726M71.2358 688.221H127.295M127.295 688.221L110.147 694.726M33.1113 701.572L52.6591 694.726M33.1113 701.572L12.5133 708.785M33.1113 701.572H92.1029M33.1113 701.572H0.430606M52.6591 694.726H110.147M52.6591 694.726H0.430606M110.147 694.726L92.1029 701.572M0.268194 693.069L0.430606 693.016M12.5133 708.785H73.089M12.5133 708.785H0.430606M12.5133 708.785L0.430606 713.016M92.1029 701.572L73.089 708.785M73.089 708.785L53.0256 716.397M53.0256 716.397L31.8237 724.44M53.0256 716.397H0.430606M9.38245 732.954L31.8237 724.44M9.38245 732.954H0.430606M9.38245 732.954L0.430606 736.35M31.8237 724.44H0.430606M78.0613 615.605L64.99 618.911M78.0613 615.605H118.169M78.0613 615.605H37.9529M130.082 612.414L141.587 609.333M130.082 612.414L118.169 615.605M130.082 612.414H169.49M141.587 609.333H180.317M141.587 609.333L152.703 606.357M114.627 606.357H152.703M114.627 606.357L126.006 603.479M114.627 606.357H76.5504M118.169 615.605L105.824 618.911M118.169 615.605H158.276M169.49 612.414L180.317 609.333M169.49 612.414L158.276 615.605M180.317 609.333L190.779 606.357M152.703 606.357H190.779M152.703 606.357L163.45 603.479M158.276 615.605L146.658 618.911M228.856 606.357L238.338 603.479M228.856 606.357H190.779M190.779 606.357L200.894 603.479M64.99 618.911H105.824M64.99 618.911H24.1562M93.0232 622.339L105.824 618.911M93.0232 622.339L79.7421 625.895M93.0232 622.339H134.61M105.824 618.911H146.658M24.1562 618.911L37.9529 615.605M24.1562 618.911H0.430606M146.658 618.911L134.61 622.339M37.9529 615.605H0.430606M79.7421 625.895L65.952 629.588M79.7421 625.895H122.11M134.61 622.339L122.11 625.895M122.11 625.895L109.131 629.588M22.7727 629.588L7.60174 633.425M22.7727 629.588H65.952M22.7727 629.588H0.430606M65.952 629.588L51.6239 633.425M65.952 629.588H109.131M109.131 629.588L95.646 633.425M36.7252 637.415L51.6239 633.425M36.7252 637.415L21.2211 641.567M36.7252 637.415H81.6236M36.7252 637.415H0.430606M51.6239 633.425H7.60174M51.6239 633.425H95.646M7.60174 633.425L0.430606 635.238M7.60174 633.425H0.430606M95.646 633.425L81.6236 637.415M21.2211 641.567L5.07394 645.89M21.2211 641.567H67.0314M21.2211 641.567H0.430606M81.6236 637.415L67.0314 641.567M67.0314 641.567L51.8346 645.89M5.07394 645.89H51.8346M5.07394 645.89L0.430606 647.134M5.07394 645.89H0.430606M51.8346 645.89L35.994 650.398M19.4679 655.1L35.994 650.398M19.4679 655.1L2.21131 660.01M19.4679 655.1H0.430606M35.994 650.398H0.430606M0.180738 650.398H0.430606M2.21131 660.01H0.430606M2.21131 660.01L0.430606 660.516M0 660.639L0.430606 660.516M11.8619 612.414L25.3963 609.333M11.8619 612.414H0.430606M11.8619 612.414L0.430606 615.016M25.3963 609.333L38.4743 606.357M25.3963 609.333H0.430606M76.5504 606.357L88.5615 603.479M76.5504 606.357H38.4743M38.4743 606.357L51.1175 603.479M38.4743 606.357H0.430606M1324.22 603.479H1361.66M1324.22 603.479H1286.77M1352.49 600.695L1354.75 601.382L1361.66 603.479M1352.49 600.695H1389.32M1361.66 603.479H1399.11M1389.32 600.695L1391.74 601.382L1392.95 601.728L1399.11 603.479M1399.11 603.479H1436.55M1436.55 603.479H1473.99M1286.77 603.479H1249.33M1473.99 603.479H1511.44M1511.44 603.479L1499.82 600.695M1511.44 603.479H1548.88M1499.82 600.695H1536.65M1174.44 603.479H1211.89M1174.44 603.479H1137M1205.16 600.695L1206.82 601.382L1207.66 601.728L1211.89 603.479M1205.16 600.695H1241.99M1211.89 603.479H1249.33M1241.99 600.695L1249.33 603.479M1137 603.479H1099.55M1024.66 603.479H1062.11M1024.66 603.479H987.221M1057.83 600.695L1058.36 601.037L1058.88 601.382L1059.42 601.728L1062.11 603.479M1057.83 600.695H1094.66M1062.11 603.479H1099.55M1094.66 600.695L1099.55 603.479M987.221 603.479H949.776M874.888 603.479H912.332M874.888 603.479H837.444M910.498 600.695L912.332 603.479M910.498 600.695H947.331M912.332 603.479H949.776M947.331 600.695L947.632 601.037L947.934 601.382L948.239 601.728L949.776 603.479M837.444 603.479H800M725.112 603.479H762.556M725.112 603.479H687.668M763.167 600.695L762.556 603.479M763.167 600.695H800M762.556 603.479H800M800 600.695V603.479M687.668 603.479H650.223M575.335 603.479H612.779M575.335 603.479H537.891M615.837 600.695L615.082 601.382L613.553 602.774L612.779 603.479M615.837 600.695H652.669M612.779 603.479H650.223M652.669 600.695L652.368 601.037L652.066 601.382L651.762 601.728L650.223 603.479M537.891 603.479H500.447M425.559 603.479H463.003M425.559 603.479H388.114M468.507 600.695L467.148 601.382L466.464 601.728L463.003 603.479M468.507 600.695H505.34M463.003 603.479H500.447M505.34 600.695L504.737 601.037L500.447 603.479M388.114 603.479H350.67M275.782 603.479H313.226M275.782 603.479H238.338M321.176 600.695L319.213 601.382L318.225 601.728L313.226 603.479M321.176 600.695H358.009M313.226 603.479H350.67M358.009 600.695L357.104 601.037L350.67 603.479M238.338 603.479H200.894M126.006 603.479H163.45M126.006 603.479H88.5615M173.846 600.695L163.45 603.479M173.846 600.695H210.678M163.45 603.479H200.894M210.678 600.695L208.263 601.382L207.047 601.728L200.894 603.479M88.5615 603.479H51.1175M26.5157 600.695L13.6735 603.479M26.5157 600.695H63.3484M26.5157 600.695H0.430606M13.6735 603.479H51.1175M13.6735 603.479L0.430606 606.35M13.6735 603.479H0.430606M63.3484 600.695L60.3284 601.382L51.1175 603.479M1536.65 600.695L1539.67 601.382L1548.88 603.479M1548.88 603.479H1586.33M1586.33 603.479L1599.57 606.35M1586.33 603.479H1599.57M1599.57 736.35V732.954M1599.57 736.35V741.98M1599.57 732.954V724.44M1599.57 741.98V743.662V751.566M1599.57 751.566V761.766M1599.57 670.511V665.142M1599.57 670.511V675.683M1599.57 600.695V603.479M1599.57 603.479V606.35M1599.57 606.35L1599.6 606.357H1599.57M1599.57 606.35V606.357M1599.57 606.357V609.333M1599.57 609.333V612.414M1599.57 612.414V615.016M1599.57 615.016V615.605M1599.57 615.605V618.911M1599.57 618.911V622.339M1599.57 622.339V624.595M1599.57 624.595V625.895M1599.57 625.895V629.588M1599.57 629.588V633.425M1599.57 633.425V635.238M1599.57 635.238V637.415M1599.57 637.415V641.567M1599.57 641.567V645.89M1599.57 645.89V647.134M1599.57 647.134V650.398M1599.57 650.398V655.1M1599.57 655.1V660.01M1599.57 660.01V660.516M1599.57 660.516V665.142M1599.57 676.135V682.031M1599.57 676.135V675.683M1599.57 682.031V688.221M1599.57 688.221V693.016M1599.57 693.016V694.726M1599.57 694.726V701.572M1599.57 701.572V708.785M1599.57 708.785V713.016M1599.57 713.016V716.397M1599.57 716.397V724.44M1599.57 761.766V763.926M1599.57 763.926V772.641M1599.57 772.641V784.259M1599.57 784.259V796.701M1599.57 796.701V797.017M1599.57 797.017V810.057M1599.57 810.057V824.431M1599.57 824.431V837.462M1599.57 837.462V839.944M1599.57 839.944V856.738M1599.57 856.738V874.978M1599.57 874.978V888.018M1599.57 888.018V894.858M1599.57 894.858V916.612M1599.57 916.612V940.516M1599.57 940.516V953.018M1599.57 953.018V966.906M1599.57 966.906V967H0.430606V966.906M0.430606 676.135V682.031M0.430606 676.135V675.683M0.430606 675.683V670.511M0.430606 670.511V665.142M0.430606 665.142V660.516M0.430606 660.516V660.01M0.430606 660.01V655.1M0.430606 655.1V650.398M0.430606 650.398V647.134M0.430606 647.134V645.89M0.430606 645.89V641.567M0.430606 641.567V637.415M0.430606 637.415V635.238M0.430606 635.238V633.425M0.430606 633.425V629.588M0.430606 629.588V625.895M0.430606 625.895V624.595M0.430606 624.595V622.339M0.430606 622.339V618.911M0.430606 618.911V615.605M0.430606 615.605V615.016M0.430606 615.016V612.414M0.430606 612.414V609.333M0.430606 609.333V606.357M0.430606 606.357H0.398123L0.430606 606.35M0.430606 606.357V606.35M0.430606 606.35V603.479M0.430606 603.479V600.695M0.430606 966.906V953.018M0.430606 953.018V940.516M0.430606 940.516V916.612M0.430606 916.612V894.858M0.430606 894.858V888.018M0.430606 888.018V874.978M0.430606 874.978V856.738M0.430606 856.738V839.944M0.430606 839.944V837.462M0.430606 837.462V824.431M0.430606 824.431V810.057M0.430606 810.057V797.017M0.430606 797.017V796.701M0.430606 796.701V784.259M0.430606 784.259V772.641M0.430606 772.641V763.926M0.430606 763.926V761.766M0.430606 761.766V751.566M0.430606 751.566V741.98M0.430606 741.98V736.35M0.430606 736.35V732.954M0.430606 732.954V724.44M0.430606 724.44V716.397M0.430606 716.397V713.016M0.430606 713.016V708.785M0.430606 708.785V701.572M0.430606 701.572V694.726M0.430606 694.726V693.016M0.430606 693.016V688.221M0.430606 688.221V682.031" stroke="url(#paint0_linear_2358_238)" stroke-miterlimit="10" stroke-linecap="round" stroke-linejoin="round"/>
</g>
<defs>
<linearGradient id="paint0_linear_2358_238" x1="800" y1="598" x2="800" y2="856.714" gradientUnits="userSpaceOnUse">
<stop stop-color="#C4C4C4" stop-opacity="0"/>
<stop offset="1" stop-color="#C4C4C4" stop-opacity="0.3"/>
</linearGradient>
<clipPath id="clip0_2358_238">
<rect width="1600" height="967" fill="white"/>
</clipPath>
</defs>
</svg>
